<?xml version="1.0" encoding="utf-8"?>
<!-- Generator: Adobe Illustrator 20.1.0, SVG Export Plug-In . SVG Version: 6.00 Build 0)  -->
<svg version="1.1" id="Capa_1" xmlns="http://www.w3.org/2000/svg" xmlns:xlink="http://www.w3.org/1999/xlink" x="0px" y="0px"
	 viewBox="0 0 100 100" style="enable-background:new 0 0 100 100;" xml:space="preserve">
<style type="text/css">
	.st0{fill:#E19736;}
</style>
<path class="st0" d="M97.8,57h-8c-0.2-1.5-0.9-3-2.1-4.2L64.5,29.6c-0.4-0.4-1-0.7-1.6-0.7H49.4c-1.3,0-2.1,1.2-3,2
	c-1,0.9-2.1,1.7-3.3,2.4c-1.6,0.9-3.4,1.6-5.3,1.9c-1,0.1-2,0.1-2.9-0.1c-2.3-0.5-3.9-2.5-1.9-4.5l10.8-10.8
	c0.7-0.7,1.5-1.1,3.2-1.1h21.6c1.3,0,2.6,1.3,3.5,2.1c1.4,1.2,2.7,2.5,4.1,3.8c2.5,2.3,5.5,4.9,9.1,4.9h12.4c2.9,0,2.9-4.6,0-4.6
	H85.4c-1.3,0-2.6-0.9-3.6-1.7c-1.5-1.2-2.9-2.5-4.3-3.8C75,17,72.1,14,68.7,14H47.1c0,0,0,0,0,0H31.3c-3.5,0-6.4,3-8.7,5.3
	c-1.3,1.2-2.6,2.5-4,3.6c-1.1,0.9-2.5,1.9-4,1.9H2.2c-2.9,0-2.9,4.6,0,4.6h12.4c3.6,0,6.6-2.6,9.1-4.9c1.4-1.2,2.7-2.6,4.1-3.8
	c0.9-0.8,2.2-2.1,3.5-2.1h7.2l-8.7,8.7c-2,2-3,5-1.8,7.7c1.1,2.5,3.7,4,6.3,4.6c5.9,1.2,11.9-2.1,16.1-6H62L84.4,56
	c2.8,2.8-1.5,7.2-4.4,4.4L65.6,45.9c-2.1-2.1-5.3,1.1-3.2,3.2l16.5,16.5c2.8,2.8-1.5,7.2-4.4,4.4L58,53.5c-2.1-2.1-5.3,1.1-3.2,3.2
	l14.2,14.2c1.9,1.9,0.5,5.3-2.2,5.3c-0.8,0-1.6-0.3-2.2-0.9h0L50.4,61.1c-2.1-2.1-5.3,1.1-3.2,3.2L59,76.2c2.8,2.8-1.6,7.2-4.4,4.4
	L53.1,79c2.5-4.8-0.7-10.7-6.1-11.1c0.4-3.9-2.3-7.4-6.1-8.2c1.1-4.6-2.3-9.2-7.1-9.4c0.3-6.9-8.2-10.6-13-5.8l-8.2,8.2
	c-1.2,1.2-1.9,2.7-2.1,4.2H2.2c-2.9,0-2.9,4.6,0,4.6h9c1.2,2.4,3.5,4,6.1,4.2c-0.5,4.9,3.8,9,8.7,8.3c0.6,4.8,5.6,7.8,10.1,6.2
	c0.8,3.3,3.9,5.7,7.4,5.7c2,0,4-0.8,5.4-2.2l1.3-1.3l1.3,1.3c4.1,4.1,11.4,2.2,12.8-3.5c4.2,1.5,8.8-1,9.9-5.3
	c5.8,2.1,11.5-3.5,9.8-9.4c2.3-0.5,4.1-2,5.1-4.1h8.7C100.7,61.6,100.7,57,97.8,57z M15.9,60.4c-1.2-1.2-1.2-3.2,0-4.4l8.2-8.2
	c2.8-2.8,7.2,1.5,4.4,4.4l-8.2,8.2C19.1,61.5,17,61.5,15.9,60.4L15.9,60.4z M22.7,68.7c-1.2-1.2-1.2-3.2,0-4.4c0,0,8.6-8.6,8.6-8.6
	c2.8-2.8,7.2,1.5,4.4,4.4l-8.6,8.6C25.9,69.9,23.9,69.9,22.7,68.7L22.7,68.7z M35.7,75.3c-0.6,0.6-1.4,0.9-2.2,0.9h0
	c-2.7,0-4.1-3.4-2.2-5.3c0,0,5.9-5.9,5.9-5.9c2.8-2.8,7.2,1.5,4.4,4.4C41.6,69.4,35.7,75.3,35.7,75.3z M45.7,80.6
	c-2.8,2.8-7.2-1.5-4.4-4.4l2.9-2.9c0.6-0.6,1.4-0.9,2.2-0.9c2.7,0,4.1,3.4,2.2,5.3C48.5,77.7,45.7,80.6,45.7,80.6z"/>
</svg>
