<?xml version="1.0" encoding="utf-8"?>
<!-- Generator: Adobe Illustrator 20.1.0, SVG Export Plug-In . SVG Version: 6.00 Build 0)  -->
<svg version="1.1" id="Capa_1" xmlns="http://www.w3.org/2000/svg" xmlns:xlink="http://www.w3.org/1999/xlink" x="0px" y="0px"
	 viewBox="0 0 100 100" style="enable-background:new 0 0 100 100;" xml:space="preserve">
<style type="text/css">
	.st0{fill:#E29A3E;}
</style>
<g>
	<g>
		<g>
			<path class="st0" d="M73.8,69.5L58.9,54.6c2.2-3,3.4-6.7,3.4-10.7c0-10.3-8.3-18.6-18.6-18.6s-18.6,8.3-18.6,18.6
				s8.3,18.6,18.6,18.6c4,0,7.7-1.3,10.7-3.4L69.3,74c1.2,1.2,3.2,1.2,4.4,0C75.1,72.6,75.1,70.7,73.8,69.5z M54.4,50.1
				c-1.1,1.8-2.6,3.3-4.4,4.4c-1.8,1.1-4,1.7-6.2,1.7c-6.8,0-12.4-5.5-12.4-12.4S37,31.4,43.8,31.4S56.2,37,56.2,43.8
				C56.2,46.1,55.5,48.2,54.4,50.1z"/>
		</g>
	</g>
	<g>
		<path class="st0" d="M50,99.5C22.7,99.5,0.5,77.3,0.5,50C0.5,22.7,22.7,0.5,50,0.5c27.3,0,49.5,22.2,49.5,49.5
			C99.5,77.3,77.3,99.5,50,99.5z M50,2.5C23.8,2.5,2.5,23.8,2.5,50S23.8,97.5,50,97.5S97.5,76.2,97.5,50S76.2,2.5,50,2.5z"/>
	</g>
</g>
</svg>
