<?xml version="1.0" encoding="utf-8"?>
<!-- Generator: Adobe Illustrator 20.1.0, SVG Export Plug-In . SVG Version: 6.00 Build 0)  -->
<svg version="1.1" id="Capa_1" xmlns="http://www.w3.org/2000/svg" xmlns:xlink="http://www.w3.org/1999/xlink" x="0px" y="0px"
	 viewBox="0 0 100 100" style="enable-background:new 0 0 100 100;" xml:space="preserve">
<style type="text/css">
	.st0{fill:#E19736;}
</style>
<g>
	<g>
		<g>
			<path class="st0" d="M21.2,39.7c-6.5,0-11.7-5.3-11.7-11.9S14.7,16,21.2,16s11.7,5.3,11.7,11.9S27.7,39.7,21.2,39.7z M21.2,18.4
				c-5.2,0-9.4,4.2-9.4,9.5c0,5.2,4.2,9.5,9.4,9.5s9.4-4.2,9.4-9.5C30.6,22.7,26.4,18.4,21.2,18.4z"/>
			<path class="st0" d="M21.2,40.7c-7,0-12.7-5.8-12.7-12.9c0-7.2,5.6-12.8,12.7-12.8c7,0,12.7,5.8,12.7,12.9
				C33.9,35.1,28.3,40.7,21.2,40.7z M21.2,17c-6,0-10.7,4.7-10.7,10.8c0,6,4.8,10.9,10.7,10.9c6,0,10.7-4.7,10.7-10.8
				C31.9,21.9,27.1,17,21.2,17z M21.2,38.4c-5.7,0-10.4-4.7-10.4-10.5s4.7-10.5,10.4-10.5c5.7,0,10.4,4.7,10.4,10.5
				S26.9,38.4,21.2,38.4z M21.2,19.4c-4.6,0-8.4,3.8-8.4,8.5s3.8,8.5,8.4,8.5s8.4-3.8,8.4-8.5S25.8,19.4,21.2,19.4z"/>
		</g>
		<g>
			<path class="st0" d="M40.7,58.6h-39L2,57.1c2-8.9,10-15.3,19.2-15.3s17,6.3,19.2,15.3L40.7,58.6z M4.7,56.2h32.9
				c-2.4-7.1-8.8-12-16.5-12S7,49.1,4.7,56.2z"/>
			<path class="st0" d="M40.7,59.6h-39c-0.3,0-0.6-0.1-0.8-0.4s-0.3-0.5-0.2-0.8L1,56.9c2.1-9.3,10.6-16.1,20.2-16.1
				c9.6,0,17.9,6.6,20.2,16.1l0.3,1.5c0.1,0.3,0,0.6-0.2,0.8S41,59.6,40.7,59.6z M2.9,57.6h36.6l-0.1-0.3
				c-2.1-8.5-9.6-14.5-18.2-14.5c-8.7,0-16.3,6.1-18.2,14.5L2.9,57.6z M37.6,57.2H4.7c-0.3,0-0.6-0.2-0.8-0.4
				c-0.2-0.3-0.2-0.6-0.1-0.9c2.5-7.7,9.3-12.7,17.4-12.7c8,0,14.8,5,17.4,12.7c0.1,0.3,0.1,0.6-0.1,0.9S37.9,57.2,37.6,57.2z
				 M6.1,55.2h30c-2.6-6.1-8.4-10-15-10C14.4,45.2,8.7,49.1,6.1,55.2z"/>
		</g>
	</g>
	<g>
		<g>
			<path class="st0" d="M79.2,65.6c-6.5,0-11.7-5.3-11.7-11.9s5.3-11.9,11.7-11.9s11.7,5.3,11.7,11.9S85.7,65.6,79.2,65.6z
				 M79.2,44.2c-5.2,0-9.4,4.2-9.4,9.5s4.2,9.5,9.4,9.5s9.4-4.2,9.4-9.5S84.4,44.2,79.2,44.2z"/>
			<path class="st0" d="M79.2,66.6c-7,0-12.7-5.8-12.7-12.9c0-7.1,5.7-12.9,12.7-12.9s12.7,5.8,12.7,12.9
				C91.9,60.8,86.2,66.6,79.2,66.6z M79.2,42.8c-5.9,0-10.7,4.9-10.7,10.9c0,6,4.8,10.9,10.7,10.9s10.7-4.9,10.7-10.9
				C89.9,47.7,85.1,42.8,79.2,42.8z M79.2,64.2c-5.7,0-10.4-4.7-10.4-10.5c0-5.8,4.7-10.5,10.4-10.5s10.4,4.7,10.4,10.5
				C89.6,59.5,84.9,64.2,79.2,64.2z M79.2,45.2c-4.6,0-8.4,3.8-8.4,8.5c0,4.7,3.8,8.5,8.4,8.5s8.4-3.8,8.4-8.5
				C87.6,49,83.8,45.2,79.2,45.2z"/>
		</g>
		<g>
			<path class="st0" d="M98.7,84.4h-39l0.3-1.5c2-8.9,10-15.3,19.2-15.3s17,6.3,19.2,15.3L98.7,84.4z M62.7,82h32.9
				c-2.4-7.1-8.8-12-16.5-12C71.5,70.1,65.1,75,62.7,82z"/>
			<path class="st0" d="M98.7,85.4h-39c-0.3,0-0.6-0.1-0.8-0.4c-0.2-0.2-0.3-0.5-0.2-0.8l0.3-1.5c2.1-9.3,10.6-16.1,20.2-16.1
				c9.6,0,17.9,6.6,20.2,16.1l0.3,1.5c0.1,0.3,0,0.6-0.2,0.8C99.3,85.3,99,85.4,98.7,85.4z M60.9,83.4h36.6l-0.1-0.3
				c-2.1-8.5-9.6-14.5-18.2-14.5c-8.7,0-16.3,6.1-18.2,14.5L60.9,83.4z M95.6,83H62.7c-0.3,0-0.6-0.2-0.8-0.4s-0.2-0.6-0.1-0.9
				c2.6-7.6,9.4-12.6,17.3-12.7c8,0,14.9,5,17.5,12.7c0.1,0.3,0.1,0.6-0.1,0.9S95.9,83,95.6,83z M64.2,81h30c-2.6-6.1-8.4-10-15-10
				C72.5,71.1,66.8,75,64.2,81z"/>
		</g>
	</g>
	<g>
		<g>
			<path class="st0" d="M83.2,35.1c-5.7-12.3-18-20.8-32.3-20.8c-4.1,0-8.2,0.8-12,2l0.8,2.3c3.6-1.3,7.3-1.9,11.2-1.9
				c12.9,0,24.1,7.4,29.7,18.3c0.4,0.8,0.8,1.6,1.1,2.4h2.6C83.8,36.6,83.5,35.8,83.2,35.1z"/>
			<path class="st0" d="M84.3,38.4h-2.6c-0.4,0-0.8-0.3-0.9-0.6c-0.3-0.8-0.7-1.5-1.1-2.3C74.1,24.5,63,17.7,50.9,17.7
				c-3.9,0-7.4,0.6-10.9,1.8c-0.3,0.1-0.5,0.1-0.8,0c-0.2-0.1-0.4-0.3-0.5-0.6L38,16.6c-0.1-0.3-0.1-0.5,0.1-0.8
				c0.1-0.2,0.3-0.4,0.6-0.5c4.3-1.4,8.4-2,12.3-2c14.2,0,27.2,8.4,33.2,21.4c0,0,0,0,0,0l0.2,0.4c0.2,0.6,0.5,1.2,0.9,1.8
				c0.2,0.3,0.2,0.7,0,1C85,38.2,84.7,38.4,84.3,38.4z M82.4,36.4h0.3c-0.1-0.2-0.2-0.4-0.2-0.5l-0.1-0.4
				c-5.7-12.3-18-20.2-31.4-20.2c-3.4,0-7,0.6-10.7,1.7l0.1,0.4c3.4-1.1,6.8-1.6,10.6-1.6c12.9,0,24.6,7.2,30.6,18.8
				C81.8,35.2,82.1,35.8,82.4,36.4z"/>
		</g>
		<g>
			<path class="st0" d="M49.5,83.7C38.3,83.3,27.8,77.1,22,67.3l-2,1.2C26.3,79,37.5,85.6,49.5,86.1c0.4,0,0.8,0,1.2,0s0.8,0,1.2,0
				v-2.4c-0.4,0-0.8,0-1.2,0C50.4,83.7,50,83.7,49.5,83.7z"/>
			<path class="st0" d="M51.9,87.1h-2.4C37,86.6,25.6,79.8,19.1,69c-0.3-0.5-0.1-1.1,0.3-1.4l2-1.2c0.2-0.1,0.5-0.2,0.8-0.1
				c0.3,0.1,0.5,0.2,0.6,0.5c5.6,9.4,15.8,15.5,26.7,15.9h2.4c0.6,0,1,0.4,1,1v2.4C52.9,86.7,52.5,87.1,51.9,87.1z M21.4,68.8
				c6.1,9.6,16.8,15.8,28.2,16.3l1.4,0v-0.4h-1.4c0,0,0,0,0,0c-11.2-0.4-21.8-6.5-27.8-16L21.4,68.8z"/>
		</g>
	</g>
</g>
</svg>
