<?xml version="1.0" encoding="utf-8"?>
<!-- Generator: Adobe Illustrator 20.1.0, SVG Export Plug-In . SVG Version: 6.00 Build 0)  -->
<svg version="1.1" id="Capa_1" xmlns="http://www.w3.org/2000/svg" xmlns:xlink="http://www.w3.org/1999/xlink" x="0px" y="0px"
	 viewBox="0 0 100 100" style="enable-background:new 0 0 100 100;" xml:space="preserve">
<style type="text/css">
	.st0{fill:#E19736;}
</style>
<g>
	<g>
		<path class="st0" d="M50,1.5C23.2,1.5,1.5,23.2,1.5,50S23.2,98.5,50,98.5S98.5,76.8,98.5,50S76.8,1.5,50,1.5z M50,95.3
			C25,95.3,4.8,75,4.8,50C4.8,25.1,25,4.8,50,4.8S95.2,25,95.2,50S75,95.2,50,95.3L50,95.3z"/>
		<path class="st0" d="M50,99C23,99,1,77,1,50S23,1,50,1s49,22,49,49S77,99,50,99z M50,2C23.5,2,2,23.5,2,50c0,26.5,21.5,48,48,48
			c26.5,0,48-21.5,48-48C98,23.5,76.5,2,50,2z M50,95.8L50,95.8C24.8,95.8,4.3,75.3,4.3,50C4.3,24.8,24.8,4.3,50,4.3
			S95.7,24.8,95.7,50C95.7,75.2,75.2,95.7,50,95.8z M50,5.3C25.4,5.3,5.3,25.4,5.3,50c0,24.7,20.1,44.8,44.7,44.8
			C74.6,94.7,94.7,74.6,94.7,50C94.7,25.4,74.6,5.3,50,5.3z"/>
	</g>
	<g>
		<g>
			<polygon class="st0" points="34.1,50.2 45.8,50.2 45.8,47 34.1,47 34.1,38.7 47.3,38.7 47.3,35.3 30.2,35.3 30.2,63.3 48.3,63.3 
				48.3,59.9 34.1,59.9 			"/>
			<path class="st0" d="M48.8,63.8H29.7v-29h18.1v4.4H34.6v7.3h11.7v4.2H34.6v8.7h14.2V63.8z M30.7,62.8h17.1v-2.4H33.6V49.7h11.7
				v-2.2H33.6v-9.3h13.2v-2.4H30.7V62.8z"/>
		</g>
		<g>
			<g>
				<path class="st0" d="M54.3,58.6c1.6,1,3.9,1.8,6.3,1.8c3.6,0,5.7-1.9,5.7-4.6c0-2.5-1.4-4-5.1-5.4c-4.4-1.6-7.2-3.9-7.2-7.7
					c0-4.2,3.5-7.4,8.8-7.4c2.8,0,4.8,0.6,6,1.3l-1,2.9c-0.9-0.5-2.7-1.3-5.1-1.3c-3.7,0-5.1,2.2-5.1,4.1c0,2.5,1.6,3.8,5.4,5.2
					c4.6,1.8,6.9,4,6.9,8c0,4.2-3.1,7.8-9.5,7.8c-2.6,0-5.5-0.8-6.9-1.7L54.3,58.6z"/>
				<path class="st0" d="M60.4,63.8c-2.5,0-5.6-0.8-7.2-1.8l-0.3-0.2l1.1-4l0.6,0.4c1.7,1.1,4,1.7,6,1.7c3.2,0,5.2-1.6,5.2-4.1
					c0-2.3-1.3-3.6-4.8-4.9c-5.1-1.9-7.5-4.5-7.5-8.2c0-4.6,3.9-7.9,9.3-7.9c3.4,0,5.4,0.9,6.3,1.4l0.4,0.2l-1.3,3.9l-0.5-0.3
					c-0.8-0.5-2.6-1.2-4.9-1.2c-3.4,0-4.6,1.9-4.6,3.6c0,2.1,1.3,3.3,5.1,4.7c5.1,2,7.2,4.5,7.2,8.5C70.4,59.3,67.8,63.8,60.4,63.8z
					 M54.1,61.4c1.3,0.7,3.9,1.4,6.3,1.4c5.5,0,9-2.9,9-7.3c0-3.6-1.8-5.7-6.6-7.5c-3.6-1.3-5.7-2.7-5.7-5.7c0-2.3,1.7-4.6,5.6-4.6
					c2.1,0,3.8,0.6,4.8,1.1l0.7-2c-0.9-0.5-2.6-1-5.4-1c-4.9,0-8.3,2.8-8.3,6.9c0,3.2,2.2,5.5,6.9,7.2c3.9,1.5,5.4,3.1,5.4,5.9
					c0,3.1-2.4,5.1-6.2,5.1c-2,0-4.2-0.6-6-1.5L54.1,61.4z"/>
			</g>
		</g>
	</g>
</g>
</svg>
