<?xml version="1.0" encoding="utf-8"?>
<!-- Generator: Adobe Illustrator 20.1.0, SVG Export Plug-In . SVG Version: 6.00 Build 0)  -->
<svg version="1.1" id="Capa_1" xmlns="http://www.w3.org/2000/svg" xmlns:xlink="http://www.w3.org/1999/xlink" x="0px" y="0px"
	 viewBox="0 0 100 100" style="enable-background:new 0 0 100 100;" xml:space="preserve">
<style type="text/css">
	.st0{fill:#D28D32;}
	.st1{fill:none;}
</style>
<g>
	<path class="st0" d="M96.6,95.1H3.4c-1.9,0-3.4-1.5-3.4-3.4V22c0-1.9,1.5-3.4,3.4-3.4H31V8.4c0-1.9,1.5-3.4,3.4-3.4h31
		c0,0,0.1,0,0.1,0C67.5,5.1,69,6.6,69,8.4v10.1h27.6c1.9,0,3.4,1.5,3.4,3.4v69.6C100,93.5,98.5,95.1,96.6,95.1z M3.4,21.5
		C3.2,21.5,3,21.7,3,22v69.6c0,0.2,0.2,0.4,0.4,0.4h93.1c0.2,0,0.4-0.2,0.4-0.4V22c0-0.2-0.2-0.4-0.4-0.4H67.5
		c-0.8,0-1.5-0.7-1.5-1.5V8.4c0-0.3-0.3-0.4-0.5-0.4h-31c-0.2,0-0.4,0.2-0.4,0.4V20c0,0.8-0.7,1.5-1.5,1.5H3.4z"/>
</g>
<g>
	<path class="st0" d="M59.7,21.5H40.3c-0.8,0-1.5-0.7-1.5-1.5v-5.8c0-0.8,0.7-1.5,1.5-1.5h19.4c0.8,0,1.5,0.7,1.5,1.5V20
		C61.2,20.9,60.5,21.5,59.7,21.5z M41.8,18.5h16.4v-2.8H41.8V18.5z"/>
</g>
<g>
	<path class="st0" d="M90.7,87.3H9.3c-0.8,0-1.5-0.7-1.5-1.5V68.3c0-0.8,0.7-1.5,1.5-1.5h25.2c0.8,0,1.5,0.7,1.5,1.5v5.8
		c0,0.2,0.2,0.4,0.4,0.4h27.2c0.2,0,0.4-0.2,0.4-0.4v-5.8c0-0.8,0.7-1.5,1.5-1.5h25.2c0.8,0,1.5,0.7,1.5,1.5v17.5
		C92.2,86.6,91.6,87.3,90.7,87.3z M10.8,84.3h78.5V69.8H67v4.3c0,1.9-1.5,3.4-3.4,3.4H36.4c-1.9,0-3.4-1.5-3.4-3.4v-4.3H10.8V84.3z"
		/>
</g>
<g>
	<rect x="42.2" y="60.6" class="st0" width="15.5" height="7.8"/>
</g>
<g>
	<path class="st0" d="M90.7,62.2H65.5c-0.8,0-1.5-0.7-1.5-1.5v-5.8c0-0.2-0.2-0.4-0.4-0.4H36.4c-0.2,0-0.4,0.2-0.4,0.4v5.8
		c0,0.8-0.7,1.5-1.5,1.5H9.3c-0.8,0-1.5-0.7-1.5-1.5V27.8c0-0.8,0.7-1.5,1.5-1.5h81.5c0.8,0,1.5,0.7,1.5,1.5v32.9
		C92.2,61.5,91.6,62.2,90.7,62.2z M67,59.2h22.2V29.3H10.8v29.9H33v-4.3c0-1.9,1.5-3.4,3.4-3.4h27.2c1.9,0,3.4,1.5,3.4,3.4V59.2z"/>
</g>
<rect x="-92" y="-1034.8" class="st1" width="1500" height="4944"/>
</svg>
