<?xml version="1.0" encoding="utf-8"?>
<!-- Generator: Adobe Illustrator 20.1.0, SVG Export Plug-In . SVG Version: 6.00 Build 0)  -->
<svg version="1.1" id="Capa_1" xmlns="http://www.w3.org/2000/svg" xmlns:xlink="http://www.w3.org/1999/xlink" x="0px" y="0px"
	 viewBox="0 0 100 100" style="enable-background:new 0 0 100 100;" xml:space="preserve">
<style type="text/css">
	.st0{fill:#E19736;}
</style>
<g>
	<path class="st0" d="M50,99.5C22.7,99.5,0.5,77.3,0.5,50C0.5,22.7,22.7,0.5,50,0.5c27.3,0,49.5,22.2,49.5,49.5
		C99.5,77.3,77.3,99.5,50,99.5z M50,2.5C23.8,2.5,2.5,23.8,2.5,50S23.8,97.5,50,97.5S97.5,76.2,97.5,50S76.2,2.5,50,2.5z M53.6,75.2
		H43.5c-0.6,0-1-0.4-1-1V51h-3.8c-0.6,0-1-0.4-1-1v-8.6c0-0.6,0.4-1,1-1h3.8v-4.5c0-5.4,2.9-11.2,11.2-11.2h7.5c0.6,0,1,0.4,1,1V34
		c0,0.6-0.4,1-1,1h-5.4c-0.8,0-1.1,0.4-1.1,1.3v4h6.7c0.3,0,0.6,0.1,0.7,0.3c0.2,0.2,0.3,0.5,0.2,0.8l-1,8.7c-0.1,0.5-0.5,0.9-1,0.9
		h-5.8v23.2C54.6,74.8,54.2,75.2,53.6,75.2z M44.5,73.2h8.1V50c0-0.6,0.4-1,1-1h5.9l0.8-6.7h-6.6c-0.6,0-1-0.4-1-1v-5
		c0-2.4,1.6-3.3,3.1-3.3h4.4v-6.3h-6.5c-8.5,0-9.2,7-9.2,9.2v5.5c0,0.6-0.4,1-1,1h-3.8V49h3.8c0.6,0,1,0.4,1,1V73.2z"/>
</g>
</svg>
