<?xml version="1.0" encoding="utf-8"?>
<!-- Generator: Adobe Illustrator 20.1.0, SVG Export Plug-In . SVG Version: 6.00 Build 0)  -->
<svg version="1.1" id="Capa_1" xmlns="http://www.w3.org/2000/svg" xmlns:xlink="http://www.w3.org/1999/xlink" x="0px" y="0px"
	 viewBox="0 0 100 100" style="enable-background:new 0 0 100 100;" xml:space="preserve">
<style type="text/css">
	.st0{fill:#E19736;}
</style>
<g>
	<g>
		<path class="st0" d="M56.2,87.2H43.8c-2.6,0-4.6-2-4.6-4.6c0-2.6,2-4.6,4.6-4.6h12.4c2.6,0,4.6,2,4.6,4.6
			C60.8,85.1,58.7,87.2,56.2,87.2z M43.8,81c-1,0-1.6,0.6-1.6,1.6c0,1,0.6,1.6,1.6,1.6h12.4c0.8,0,1.6-0.6,1.6-1.6
			c0-1-0.6-1.6-1.6-1.6H43.8z"/>
	</g>
	<g>
		<path class="st0" d="M49.9,22c-2.6,0-4.6-2-4.6-4.6V4.9c0-2.6,2-4.6,4.6-4.6s4.6,2,4.6,4.6v12.4c0.1,1.2-0.4,2.4-1.2,3.3
			C52.4,21.5,51.2,22,49.9,22z M49.9,3.3c-1,0-1.6,0.6-1.6,1.6v12.5c0,1,0.6,1.6,1.6,1.6c0.5,0,0.9-0.2,1.2-0.5
			c0.2-0.2,0.4-0.6,0.4-1.1l0-12.5C51.5,3.9,50.9,3.3,49.9,3.3z"/>
	</g>
	<g>
		<path class="st0" d="M22,49.9H9.6c-2.6,0-4.6-2-4.6-4.6c0-2.6,2-4.6,4.6-4.6H22c2.6,0,4.6,2,4.6,4.6c0.1,1.1-0.4,2.2-1.2,3.1
			C24.5,49.4,23.3,49.9,22,49.9z M9.6,43.7c-1,0-1.6,0.6-1.6,1.6c0,1,0.6,1.6,1.6,1.6H22c0.5,0,0.9-0.2,1.2-0.5
			c0.2-0.2,0.4-0.5,0.4-1c0-1.1-0.6-1.7-1.6-1.7H9.6z"/>
	</g>
	<g>
		<path class="st0" d="M29.8,29.7c-1.2,0-2.4-0.5-3.3-1.3l-8.8-8.8c-1.8-1.8-1.8-4.6,0-6.4s4.6-1.8,6.4,0l8.8,8.8
			c0.9,0.9,1.3,2,1.3,3.2c0,1.2-0.5,2.3-1.3,3.2C32.1,29.2,30.9,29.7,29.8,29.7z M20.9,14.8c-0.4,0-0.8,0.2-1.1,0.5
			c-0.6,0.6-0.6,1.6,0,2.2l8.8,8.8c0.3,0.3,0.8,0.5,1.1,0.5c0.3,0,0.7-0.1,1-0.5c0.3-0.3,0.5-0.7,0.5-1.1s-0.2-0.8-0.5-1.1L22,15.3
			C21.7,15,21.3,14.8,20.9,14.8z"/>
	</g>
	<g>
		<path class="st0" d="M70.2,29.7c-1.2,0-2.4-0.5-3.3-1.3c-0.9-0.9-1.3-2-1.3-3.2c0-1.2,0.5-2.3,1.3-3.2l8.8-8.8
			c0.9-0.9,2-1.3,3.2-1.3s2.3,0.5,3.2,1.3c0.9,0.9,1.3,2,1.3,3.2c0,1.2-0.5,2.3-1.3,3.2l-8.8,8.8C72.5,29.2,71.4,29.7,70.2,29.7z
			 M79,14.8c-0.4,0-0.8,0.2-1.1,0.5l-8.8,8.8c-0.3,0.3-0.5,0.7-0.5,1.1s0.2,0.8,0.5,1.1c0.3,0.3,0.8,0.5,1.1,0.5
			c0.4,0,0.7-0.1,1-0.5l8.8-8.8c0.3-0.3,0.5-0.7,0.5-1.1s-0.2-0.8-0.5-1.1C79.7,15,79.4,14.8,79,14.8z"/>
	</g>
	<g>
		<path class="st0" d="M90.4,49.9H78c-2.6,0-4.6-2-4.6-4.6c0-2.6,2-4.6,4.6-4.6h12.4c2.6,0,4.6,2,4.6,4.6C95,47.9,93,49.9,90.4,49.9
			z M78,43.7c-1,0-1.6,0.6-1.6,1.6c0,1,0.6,1.6,1.6,1.6h12.4c0.9,0,1.6-0.7,1.6-1.6c0-1-0.6-1.6-1.6-1.6H78z"/>
	</g>
	<g>
		<path class="st0" d="M51.5,99.6h-3.1c-2.1,0-3.8-1.3-4.4-3.1h-0.2c-2.6,0-4.6-2-4.6-4.6c0-2.6,2-4.6,4.6-4.6h12.4
			c2.5,0,4.5,2.1,4.5,4.6c0,2.6-2,4.6-4.6,4.6h-0.2C55.3,98.3,53.6,99.6,51.5,99.6z M43.8,90.3c-1,0-1.6,0.6-1.6,1.6
			c0,1,0.6,1.6,1.6,1.6h3V95c0,1,0.6,1.6,1.6,1.6h3.1c1,0,1.6-0.6,1.6-1.6v-1.5h3c1,0,1.6-0.6,1.6-1.6c0-1-0.8-1.6-1.5-1.6H43.8z"/>
	</g>
	<g>
		<path class="st0" d="M56,78H43.6C41,78,39,76,39,73.4c0-4.6-4.8-10.7-6.6-12.7c-3.8-4.5-5.8-9.8-5.8-15.3
			c0-12.8,10.5-23.3,23.3-23.3c12.8,0,23.3,10.5,23.3,23.3c0,5.8-2.2,11.4-6.1,15.6c-2.9,3.2-6.4,8.4-6.5,12.3l0,0
			C60.6,76,58.6,78,56,78z M49.9,25.1c-11.2,0-20.3,9.1-20.3,20.3c0,4.8,1.7,9.4,5,13.3C34.9,59,42,66.6,42,73.4
			c0,1,0.6,1.6,1.6,1.6H56c1,0,1.6-0.6,1.6-1.6v-0.1c0.2-6.2,6.1-13,7.3-14.3l0,0c3.4-3.7,5.3-8.5,5.3-13.6
			C70.2,34.2,61.1,25.1,49.9,25.1z"/>
	</g>
</g>
</svg>
