<?xml version="1.0" encoding="utf-8"?>
<!-- Generator: Adobe Illustrator 20.1.0, SVG Export Plug-In . SVG Version: 6.00 Build 0)  -->
<svg version="1.1" id="Capa_1" xmlns="http://www.w3.org/2000/svg" xmlns:xlink="http://www.w3.org/1999/xlink" x="0px" y="0px"
	 viewBox="0 0 100 100" style="enable-background:new 0 0 100 100;" xml:space="preserve">
<style type="text/css">
	.st0{fill:#E19736;}
</style>
<g>
	<g>
		<path class="st0" d="M50,1.5C23.2,1.5,1.5,23.2,1.5,50S23.2,98.5,50,98.5S98.5,76.8,98.5,50S76.8,1.5,50,1.5z M50,95.3
			C25,95.3,4.8,75,4.8,50C4.8,25.1,25,4.8,50,4.8S95.2,25,95.2,50S75,95.2,50,95.3L50,95.3z"/>
		<path class="st0" d="M50,99C23,99,1,77,1,50S23,1,50,1s49,22,49,49S77,99,50,99z M50,2C23.5,2,2,23.5,2,50c0,26.5,21.5,48,48,48
			c26.5,0,48-21.5,48-48C98,23.5,76.5,2,50,2z M50,95.8L50,95.8C24.8,95.8,4.3,75.3,4.3,50C4.3,24.8,24.8,4.3,50,4.3
			S95.7,24.8,95.7,50C95.7,75.2,75.2,95.7,50,95.8z M50,5.3C25.4,5.3,5.3,25.4,5.3,50c0,24.7,20.1,44.8,44.7,44.8
			C74.6,94.7,94.7,74.6,94.7,50C94.7,25.4,74.6,5.3,50,5.3z"/>
	</g>
	<g>
		<g>
			<polygon class="st0" points="31.2,50.2 42.9,50.2 42.9,47 31.2,47 31.2,38.7 44.3,38.7 44.3,35.3 27.3,35.3 27.3,63.3 45.3,63.3 
				45.3,59.9 31.2,59.9 			"/>
			<path class="st0" d="M45.8,63.8h-19v-29h18v4.4H31.7v7.3h11.7v4.2H31.7v8.7h14.1V63.8z M27.8,62.8h17v-2.4H30.7V49.7h11.7v-2.2
				H30.7v-9.3h13.1v-2.4h-16V62.8z"/>
		</g>
		<g>
			<path class="st0" d="M68.9,56c-0.9-1.5-1.9-3.1-3.2-4.9c-1.3-1.8-2.6-3.7-4-5.6c-1.4-1.9-2.8-3.7-4.3-5.5
				c-1.4-1.8-2.8-3.4-4.1-4.7h-3.1v28H54V41.5c0.7,0.9,1.5,1.9,2.5,3c0.9,1.1,1.8,2.3,2.7,3.6s1.9,2.6,2.8,4c1,1.4,1.9,2.7,2.8,4.1
				c0.9,1.3,1.7,2.6,2.5,3.8s1.4,2.4,2,3.3h3.3v-28h-3.8L68.9,56L68.9,56z"/>
			<path class="st0" d="M73.1,63.8H69l-0.1-0.2c-0.3-0.4-0.6-0.9-0.9-1.4c-0.3-0.6-0.7-1.2-1.1-1.9c-0.3-0.5-0.6-1-0.9-1.5
				c-0.5-0.8-1-1.6-1.5-2.3c-0.8-1.3-1.6-2.5-2.8-4.1c-0.6-0.9-1.2-1.7-1.8-2.6c-0.4-0.5-0.7-1-1-1.5c-0.9-1.3-1.8-2.5-2.7-3.6
				c-0.6-0.7-1.1-1.3-1.6-1.9v20.9h-4.8v-29h3.8l0.1,0.1c1.3,1.3,2.8,3,4.1,4.7c1.4,1.7,2.8,3.5,4.3,5.5c0.8,1.1,1.6,2.2,2.4,3.3
				c0.5,0.8,1.1,1.5,1.6,2.3c0.9,1.2,1.6,2.3,2.2,3.3V34.8h4.8V63.8z M69.6,62.8h2.5v-27h-2.8v19.9c0,0,0,0,0,0l0.5,0.8h-1.5V56
				c-0.8-1.3-1.8-2.8-3-4.6c-0.5-0.7-1.1-1.5-1.6-2.3c-0.8-1.1-1.6-2.2-2.4-3.3c-1.5-2-2.9-3.8-4.3-5.5c-1.3-1.7-2.7-3.3-3.9-4.5
				h-2.4v27h2.8V40l0.9,1.1c0.7,0.9,1.5,1.9,2.5,3c0.9,1.1,1.8,2.3,2.7,3.7c0.3,0.5,0.7,1,1,1.4c0.6,0.8,1.2,1.7,1.8,2.6
				c1.1,1.6,2,2.8,2.8,4.1c0.5,0.8,1.1,1.6,1.6,2.4c0.3,0.5,0.6,1,0.9,1.4c0.4,0.7,0.8,1.3,1.2,1.9C69.1,62,69.3,62.4,69.6,62.8z"/>
		</g>
	</g>
</g>
</svg>
