<?xml version="1.0" encoding="utf-8"?>
<!-- Generator: Adobe Illustrator 20.1.0, SVG Export Plug-In . SVG Version: 6.00 Build 0)  -->
<svg version="1.1" id="Capa_1" xmlns="http://www.w3.org/2000/svg" xmlns:xlink="http://www.w3.org/1999/xlink" x="0px" y="0px"
	 viewBox="0 0 100 100" style="enable-background:new 0 0 100 100;" xml:space="preserve">
<style type="text/css">
	.st0{fill:#D28D32;}
</style>
<g>
	<path class="st0" d="M82.3,92H17.7c-1.9,0-3.4-1.5-3.4-3.4V45.5l-7.4,5.3c-1.4,1.1-3.5,0.7-4.6-0.7l-2.2-3
		c-0.5-0.7-0.7-1.6-0.6-2.5c0.1-0.9,0.6-1.6,1.3-2.2L48,8.7c1.2-0.9,2.8-1,4-0.1l17.7,12.8v-8.2c0-1.9,1.5-3.4,3.4-3.4h3.7
		c1.8,0,3.4,1.5,3.4,3.4v14.9l18.9,14.3c1.4,1.1,1.8,3.2,0.7,4.6L97.7,50c-1.1,1.5-3.2,1.8-4.7,0.7l-7.3-5.3v43.2
		C85.7,90.5,84.2,92,82.3,92z M15.8,41.1c0.2,0,0.5,0.1,0.7,0.2c0.5,0.3,0.8,0.8,0.8,1.3v46.1c0,0.2,0.2,0.4,0.4,0.4h64.7
		c0.2,0,0.4-0.2,0.4-0.4V42.5c0-0.6,0.3-1.1,0.8-1.3c0.5-0.3,1.1-0.2,1.6,0.1l9.7,7.1c0.1,0.1,0.4,0.1,0.5-0.1l2.1-2.9
		c0.1-0.1,0.1-0.4-0.1-0.5L77.8,30c-0.4-0.3-0.6-0.7-0.6-1.2V13.2c0-0.2-0.2-0.4-0.4-0.4h-3.7c-0.2,0-0.4,0.2-0.4,0.4v11.2
		c0,0.6-0.3,1.1-0.8,1.3c-0.5,0.3-1.1,0.2-1.6-0.1L50.3,11c-0.1-0.1-0.3,0-0.4,0c0,0-0.1,0-0.1,0.1L2.6,44.9c0,0-0.1,0.1-0.1,0.2
		c0,0.1,0,0.2,0,0.2l2.2,3c0.1,0.1,0.3,0.2,0.4,0.1l9.8-7.1C15.2,41.1,15.5,41.1,15.8,41.1z"/>
</g>
<g>
	<rect x="41.7" y="53.7" class="st0" width="16.7" height="29.5"/>
</g>
<g>
	<path class="st0" d="M76.9,84.7H65.8c-0.8,0-1.5-0.7-1.5-1.5V48.1c0-0.2-0.2-0.4-0.4-0.4H36.2c-0.2,0-0.4,0.2-0.4,0.4v35.1
		c0,0.8-0.7,1.5-1.5,1.5H23.2c-0.8,0-1.5-0.7-1.5-1.5V38c0-0.5,0.2-0.9,0.6-1.2l26.9-19.9c0.5-0.4,1.3-0.4,1.8,0l26.8,19.9
		c0.4,0.3,0.6,0.7,0.6,1.2v45.2C78.4,84.1,77.7,84.7,76.9,84.7z M67.3,81.7h8.1V38.8L50.1,20L24.7,38.8v42.9h8.1V48.1
		c0-1.9,1.5-3.4,3.4-3.4h27.7c1.9,0,3.4,1.5,3.4,3.4V81.7z"/>
</g>
</svg>
