<?xml version="1.0" encoding="utf-8"?>
<!-- Generator: Adobe Illustrator 20.1.0, SVG Export Plug-In . SVG Version: 6.00 Build 0)  -->
<svg version="1.1" id="Capa_1" xmlns="http://www.w3.org/2000/svg" xmlns:xlink="http://www.w3.org/1999/xlink" x="0px" y="0px"
	 viewBox="0 0 100 100" style="enable-background:new 0 0 100 100;" xml:space="preserve">
<style type="text/css">
	.st0{fill:#E19736;}
</style>
<g>
	<g>
		<path class="st0" d="M52.9,47.4c-0.6,0-1-0.4-1-1v-0.1c0-0.6,0.4-1,1-1s1,0.4,1,1v0.1C53.9,47,53.5,47.4,52.9,47.4z"/>
	</g>
	<g>
		<path class="st0" d="M50,99.5C22.7,99.5,0.5,77.3,0.5,50C0.5,22.7,22.7,0.5,50,0.5c27.3,0,49.5,22.2,49.5,49.5
			C99.5,77.3,77.3,99.5,50,99.5z M50,2.5C23.8,2.5,2.5,23.8,2.5,50S23.8,97.5,50,97.5S97.5,76.2,97.5,50S76.2,2.5,50,2.5z
			 M74.3,74.2H63.9c-0.6,0-1-0.4-1-1V56.4c0-6.1-3.2-6.1-4.3-6.1c-2.9,0-4,2.2-4.4,3.1C54,54,54,54.8,54,55.6v17.5c0,0.6-0.4,1-1,1
			H42.5c-0.3,0-0.5-0.1-0.7-0.3c-0.2-0.2-0.3-0.4-0.3-0.7c0-0.3,0.1-28.3,0-31.3c0-0.3,0.1-0.5,0.3-0.7s0.4-0.3,0.7-0.3h10.4
			c0.6,0,1,0.4,1,1v1.6c1.7-1.8,4.3-3.4,8.4-3.4c8,0,13,5.8,13,15.1v18.1C75.3,73.8,74.9,74.2,74.3,74.2z M64.9,72.2h8.4V55.1
			c0-8.2-4.1-13.1-11-13.1c-4.8,0-7.1,2.5-8.6,4.8c-0.2,0.4-0.7,0.5-1.1,0.4c-0.4-0.1-0.7-0.5-0.7-1v-3.4h-8.4
			c0.1,5.2,0,24.6,0,29.3H52V55.6c0-1,0-2,0.4-2.9c1-2.7,3.3-4.4,6.2-4.4c2.4,0,6.3,1.1,6.3,8.1V72.2z M36.8,74.2H26.4
			c-0.6,0-1-0.4-1-1V41.9c0-0.6,0.4-1,1-1h10.4c0.6,0,1,0.4,1,1v31.3C37.8,73.8,37.4,74.2,36.8,74.2z M27.4,72.2h8.4V42.9h-8.4V72.2
			z M31.6,38.6c-3.9,0-6.8-2.7-6.8-6.4c0-3.8,2.8-6.4,6.9-6.4c3.9,0,6.7,2.6,6.8,6.4C38.4,36,35.5,38.6,31.6,38.6z M31.7,27.8
			c-2.9,0-4.9,1.8-4.9,4.4s1.9,4.4,4.8,4.4c2.8,0,4.8-1.8,4.9-4.4C36.4,29.5,34.6,27.8,31.7,27.8z"/>
	</g>
</g>
</svg>
