<?xml version="1.0" encoding="utf-8"?>
<!-- Generator: Adobe Illustrator 20.1.0, SVG Export Plug-In . SVG Version: 6.00 Build 0)  -->
<svg version="1.1" id="Capa_1" xmlns="http://www.w3.org/2000/svg" xmlns:xlink="http://www.w3.org/1999/xlink" x="0px" y="0px"
	 viewBox="0 0 100 100" style="enable-background:new 0 0 100 100;" xml:space="preserve">
<style type="text/css">
	.st0{fill:#88898C;}
	.st1{fill:#6C6D70;}
	.st2{fill:#E29A3E;}
	.st3{clip-path:url(#SVGID_2_);fill:#918F94;}
	.st4{clip-path:url(#SVGID_2_);fill:#908E93;}
	.st5{clip-path:url(#SVGID_2_);fill:#8F8D92;}
	.st6{clip-path:url(#SVGID_2_);fill:#8F8D91;}
	.st7{clip-path:url(#SVGID_2_);fill:#8E8C90;}
	.st8{clip-path:url(#SVGID_2_);fill:#8D8B8F;}
	.st9{clip-path:url(#SVGID_2_);fill:#8C8A8F;}
	.st10{clip-path:url(#SVGID_2_);fill:#8B898E;}
	.st11{clip-path:url(#SVGID_2_);fill:#8A888D;}
	.st12{clip-path:url(#SVGID_2_);fill:#89878C;}
	.st13{clip-path:url(#SVGID_2_);fill:#88868B;}
	.st14{clip-path:url(#SVGID_2_);fill:#87858A;}
	.st15{clip-path:url(#SVGID_2_);fill:#868489;}
	.st16{clip-path:url(#SVGID_2_);fill:#868488;}
	.st17{clip-path:url(#SVGID_2_);fill:#858387;}
	.st18{clip-path:url(#SVGID_2_);fill:#848286;}
	.st19{clip-path:url(#SVGID_2_);fill:#838185;}
	.st20{clip-path:url(#SVGID_2_);fill:#828084;}
	.st21{clip-path:url(#SVGID_2_);fill:#817F83;}
	.st22{clip-path:url(#SVGID_2_);fill:#807E82;}
	.st23{clip-path:url(#SVGID_2_);fill:#7F7D81;}
	.st24{clip-path:url(#SVGID_2_);fill:#7E7C80;}
	.st25{clip-path:url(#SVGID_2_);fill:#7D7B7F;}
	.st26{clip-path:url(#SVGID_2_);fill:#7C7A7E;}
	.st27{clip-path:url(#SVGID_2_);fill:#7B797D;}
	.st28{clip-path:url(#SVGID_2_);fill:#7A787C;}
	.st29{clip-path:url(#SVGID_2_);fill:#79777B;}
	.st30{clip-path:url(#SVGID_2_);fill:#78767A;}
	.st31{clip-path:url(#SVGID_2_);fill:#777579;}
	.st32{clip-path:url(#SVGID_2_);fill:#777578;}
	.st33{clip-path:url(#SVGID_2_);fill:#767477;}
	.st34{clip-path:url(#SVGID_2_);fill:#757376;}
	.st35{clip-path:url(#SVGID_2_);fill:#747275;}
	.st36{clip-path:url(#SVGID_2_);fill:#737174;}
	.st37{clip-path:url(#SVGID_2_);fill:#727073;}
	.st38{clip-path:url(#SVGID_2_);fill:#716F72;}
	.st39{clip-path:url(#SVGID_2_);fill:#706E71;}
	.st40{clip-path:url(#SVGID_2_);fill:#6F6D70;}
	.st41{clip-path:url(#SVGID_2_);fill:#6E6C6F;}
	.st42{clip-path:url(#SVGID_2_);fill:#6D6B6E;}
	.st43{clip-path:url(#SVGID_2_);fill:#6C6A6D;}
	.st44{clip-path:url(#SVGID_2_);fill:#6B696C;}
	.st45{clip-path:url(#SVGID_2_);fill:#6A686B;}
	.st46{clip-path:url(#SVGID_2_);fill:#69676A;}
	.st47{clip-path:url(#SVGID_2_);fill:#686669;}
	.st48{clip-path:url(#SVGID_2_);fill:#676568;}
	.st49{clip-path:url(#SVGID_2_);fill:#666466;}
	.st50{clip-path:url(#SVGID_2_);fill:#656365;}
	.st51{clip-path:url(#SVGID_2_);fill:#646264;}
	.st52{clip-path:url(#SVGID_2_);fill:#636163;}
	.st53{clip-path:url(#SVGID_2_);fill:#626062;}
	.st54{clip-path:url(#SVGID_2_);fill:#615F61;}
	.st55{clip-path:url(#SVGID_2_);fill:#605E60;}
	.st56{clip-path:url(#SVGID_2_);fill:#5F5D5F;}
	.st57{clip-path:url(#SVGID_2_);fill:#5E5C5E;}
	.st58{clip-path:url(#SVGID_2_);fill:#5E5C5D;}
	.st59{clip-path:url(#SVGID_2_);fill:#5D5B5C;}
	.st60{clip-path:url(#SVGID_2_);fill:#5C5A5B;}
	.st61{clip-path:url(#SVGID_2_);fill:#5B595A;}
	.st62{clip-path:url(#SVGID_2_);fill:#5A5859;}
	.st63{clip-path:url(#SVGID_2_);fill:#595758;}
	.st64{clip-path:url(#SVGID_2_);fill:#585657;}
	.st65{clip-path:url(#SVGID_2_);fill:#575556;}
	.st66{clip-path:url(#SVGID_2_);fill:#565455;}
	.st67{clip-path:url(#SVGID_2_);fill:#555354;}
	.st68{clip-path:url(#SVGID_2_);fill:#545253;}
	.st69{clip-path:url(#SVGID_2_);fill:#535152;}
	.st70{clip-path:url(#SVGID_2_);fill:#525051;}
	.st71{clip-path:url(#SVGID_2_);fill:#514F50;}
	.st72{clip-path:url(#SVGID_2_);fill:#504E4F;}
	.st73{clip-path:url(#SVGID_2_);fill:#4F4D4E;}
	.st74{clip-path:url(#SVGID_2_);fill:#4E4C4D;}
	.st75{clip-path:url(#SVGID_2_);fill:#4D4B4B;}
	.st76{clip-path:url(#SVGID_2_);fill:#4C4A4A;}
	.st77{clip-path:url(#SVGID_2_);fill:#4B4949;}
	.st78{clip-path:url(#SVGID_2_);fill:#4A4848;}
	.st79{clip-path:url(#SVGID_2_);fill:#494747;}
	.st80{clip-path:url(#SVGID_2_);fill:#484646;}
	.st81{clip-path:url(#SVGID_2_);fill:#474545;}
	.st82{clip-path:url(#SVGID_2_);fill:#464444;}
	.st83{clip-path:url(#SVGID_2_);fill:#454343;}
	.st84{clip-path:url(#SVGID_2_);fill:#444242;}
	.st85{clip-path:url(#SVGID_4_);fill:#FFFFFF;}
	.st86{clip-path:url(#SVGID_4_);fill:#FCFCFC;}
	.st87{clip-path:url(#SVGID_4_);fill:#FAFAFA;}
	.st88{clip-path:url(#SVGID_4_);fill:#F7F7F7;}
	.st89{clip-path:url(#SVGID_4_);fill:#F4F4F5;}
	.st90{clip-path:url(#SVGID_4_);fill:#F2F2F2;}
	.st91{clip-path:url(#SVGID_4_);fill:#EFEFF0;}
	.st92{clip-path:url(#SVGID_4_);fill:#EDEDED;}
	.st93{clip-path:url(#SVGID_4_);fill:#EAEAEB;}
	.st94{clip-path:url(#SVGID_4_);fill:#E8E8E9;}
	.st95{clip-path:url(#SVGID_4_);fill:#E6E5E6;}
	.st96{clip-path:url(#SVGID_4_);fill:#E3E3E4;}
	.st97{clip-path:url(#SVGID_4_);fill:#E1E1E2;}
	.st98{clip-path:url(#SVGID_4_);fill:#DFDEE0;}
	.st99{clip-path:url(#SVGID_4_);fill:#DDDCDE;}
	.st100{clip-path:url(#SVGID_4_);fill:#DBDADC;}
	.st101{clip-path:url(#SVGID_4_);fill:#D9D8DA;}
	.st102{clip-path:url(#SVGID_4_);fill:#D7D6D8;}
	.st103{clip-path:url(#SVGID_4_);fill:#D5D4D6;}
	.st104{clip-path:url(#SVGID_4_);fill:#D3D2D4;}
	.st105{clip-path:url(#SVGID_4_);fill:#D1D0D2;}
	.st106{clip-path:url(#SVGID_4_);fill:#CFCED0;}
	.st107{clip-path:url(#SVGID_4_);fill:#CDCCCE;}
	.st108{clip-path:url(#SVGID_4_);fill:#CBCACC;}
	.st109{clip-path:url(#SVGID_4_);fill:#C9C8CB;}
	.st110{clip-path:url(#SVGID_4_);fill:#C7C6C9;}
	.st111{clip-path:url(#SVGID_4_);fill:#C6C5C7;}
	.st112{clip-path:url(#SVGID_4_);fill:#C4C3C6;}
	.st113{clip-path:url(#SVGID_4_);fill:#C2C1C4;}
	.st114{clip-path:url(#SVGID_4_);fill:#C1C0C2;}
	.st115{clip-path:url(#SVGID_4_);fill:#BFBEC1;}
	.st116{clip-path:url(#SVGID_4_);fill:#BEBCBF;}
	.st117{clip-path:url(#SVGID_4_);fill:#BCBBBE;}
	.st118{clip-path:url(#SVGID_4_);fill:#BBB9BC;}
	.st119{clip-path:url(#SVGID_4_);fill:#B9B8BB;}
	.st120{clip-path:url(#SVGID_4_);fill:#B8B6BA;}
	.st121{clip-path:url(#SVGID_4_);fill:#B6B5B8;}
	.st122{clip-path:url(#SVGID_4_);fill:#B5B4B7;}
	.st123{clip-path:url(#SVGID_4_);fill:#B4B2B6;}
	.st124{clip-path:url(#SVGID_4_);fill:#B2B1B4;}
	.st125{clip-path:url(#SVGID_4_);fill:#B1B0B3;}
	.st126{clip-path:url(#SVGID_4_);fill:#B0AEB2;}
	.st127{clip-path:url(#SVGID_4_);fill:#AFADB1;}
	.st128{clip-path:url(#SVGID_4_);fill:#ADACB0;}
	.st129{clip-path:url(#SVGID_4_);fill:#ACABAF;}
	.st130{clip-path:url(#SVGID_4_);fill:#ABAAAE;}
	.st131{clip-path:url(#SVGID_4_);fill:#AAA9AC;}
	.st132{clip-path:url(#SVGID_4_);fill:#A9A8AB;}
	.st133{clip-path:url(#SVGID_4_);fill:#A8A6AA;}
	.st134{clip-path:url(#SVGID_4_);fill:#A7A5A9;}
	.st135{clip-path:url(#SVGID_4_);fill:#A6A4A9;}
	.st136{clip-path:url(#SVGID_4_);fill:#A5A4A8;}
	.st137{clip-path:url(#SVGID_4_);fill:#A4A3A7;}
	.st138{clip-path:url(#SVGID_4_);fill:#A3A2A6;}
	.st139{clip-path:url(#SVGID_4_);fill:#A3A1A5;}
	.st140{clip-path:url(#SVGID_4_);fill:#A2A0A4;}
	.st141{clip-path:url(#SVGID_4_);fill:#A19FA3;}
	.st142{clip-path:url(#SVGID_4_);fill:#A09EA3;}
	.st143{clip-path:url(#SVGID_4_);fill:#9F9EA2;}
	.st144{clip-path:url(#SVGID_4_);fill:#9F9DA1;}
	.st145{clip-path:url(#SVGID_4_);fill:#9E9CA1;}
	.st146{clip-path:url(#SVGID_4_);fill:#9D9BA0;}
	.st147{clip-path:url(#SVGID_4_);fill:#9D9B9F;}
	.st148{clip-path:url(#SVGID_4_);fill:#9C9A9F;}
	.st149{clip-path:url(#SVGID_4_);fill:#9B999E;}
	.st150{clip-path:url(#SVGID_4_);fill:#9B999D;}
	.st151{clip-path:url(#SVGID_4_);fill:#9A989D;}
	.st152{clip-path:url(#SVGID_4_);fill:#9A989C;}
	.st153{clip-path:url(#SVGID_4_);fill:#99979C;}
	.st154{clip-path:url(#SVGID_4_);fill:#99979B;}
	.st155{clip-path:url(#SVGID_4_);fill:#98969B;}
	.st156{clip-path:url(#SVGID_4_);fill:#98969A;}
	.st157{clip-path:url(#SVGID_4_);fill:#97959A;}
	.st158{clip-path:url(#SVGID_4_);fill:#969499;}
	.st159{clip-path:url(#SVGID_4_);fill:#969498;}
	.st160{clip-path:url(#SVGID_4_);fill:#959398;}
	.st161{clip-path:url(#SVGID_4_);fill:#959397;}
	.st162{clip-path:url(#SVGID_4_);fill:#949297;}
	.st163{clip-path:url(#SVGID_4_);fill:#939296;}
	.st164{clip-path:url(#SVGID_4_);fill:#939196;}
	.st165{clip-path:url(#SVGID_4_);fill:#929095;}
	.st166{clip-path:url(#SVGID_4_);fill:#918F94;}
	.st167{clip-path:url(#SVGID_4_);fill:#929195;}
	.st168{clip-path:url(#SVGID_4_);fill:#979599;}
	.st169{clip-path:url(#SVGID_4_);fill:#97969A;}
	.st170{clip-path:url(#SVGID_4_);fill:#98979B;}
	.st171{clip-path:url(#SVGID_4_);fill:#99989C;}
	.st172{clip-path:url(#SVGID_4_);fill:#9C9B9F;}
	.st173{clip-path:url(#SVGID_4_);fill:#9E9CA0;}
	.st174{clip-path:url(#SVGID_4_);fill:#9E9DA1;}
	.st175{clip-path:url(#SVGID_4_);fill:#9F9DA2;}
	.st176{clip-path:url(#SVGID_4_);fill:#A09EA2;}
	.st177{clip-path:url(#SVGID_4_);fill:#A1A0A4;}
	.st178{clip-path:url(#SVGID_4_);fill:#A2A0A5;}
	.st179{clip-path:url(#SVGID_4_);fill:#A4A2A6;}
	.st180{clip-path:url(#SVGID_4_);fill:#A5A3A7;}
	.st181{clip-path:url(#SVGID_4_);fill:#A6A5A9;}
	.st182{clip-path:url(#SVGID_4_);fill:#A7A6AA;}
	.st183{clip-path:url(#SVGID_4_);fill:#A8A7AB;}
	.st184{clip-path:url(#SVGID_4_);fill:#ABAAAD;}
	.st185{clip-path:url(#SVGID_4_);fill:#ACABAE;}
	.st186{clip-path:url(#SVGID_4_);fill:#ADACAF;}
	.st187{clip-path:url(#SVGID_4_);fill:#AEADB0;}
	.st188{clip-path:url(#SVGID_4_);fill:#AFAEB1;}
	.st189{clip-path:url(#SVGID_4_);fill:#B0AFB2;}
	.st190{clip-path:url(#SVGID_4_);fill:#B1B0B4;}
	.st191{clip-path:url(#SVGID_4_);fill:#B3B1B5;}
	.st192{clip-path:url(#SVGID_4_);fill:#B7B6B9;}
	.st193{clip-path:url(#SVGID_4_);fill:#B9B7BA;}
	.st194{clip-path:url(#SVGID_4_);fill:#BAB9BC;}
	.st195{clip-path:url(#SVGID_4_);fill:#BBBABD;}
	.st196{clip-path:url(#SVGID_4_);fill:#BEBDC0;}
	.st197{clip-path:url(#SVGID_4_);fill:#C0BFC2;}
	.st198{clip-path:url(#SVGID_4_);fill:#C3C2C5;}
	.st199{clip-path:url(#SVGID_4_);fill:#C5C4C6;}
	.st200{clip-path:url(#SVGID_4_);fill:#C6C5C8;}
	.st201{clip-path:url(#SVGID_4_);fill:#C8C7C9;}
	.st202{clip-path:url(#SVGID_4_);fill:#CCCBCE;}
	.st203{clip-path:url(#SVGID_4_);fill:#CECDCF;}
	.st204{clip-path:url(#SVGID_4_);fill:#CFCFD1;}
	.st205{clip-path:url(#SVGID_4_);fill:#D4D4D6;}
	.st206{clip-path:url(#SVGID_4_);fill:#D6D5D7;}
	.st207{clip-path:url(#SVGID_4_);fill:#D8D7D9;}
	.st208{clip-path:url(#SVGID_4_);fill:#DAD9DB;}
	.st209{clip-path:url(#SVGID_4_);fill:#DBDBDC;}
	.st210{clip-path:url(#SVGID_4_);fill:#E1E0E2;}
	.st211{clip-path:url(#SVGID_4_);fill:#E3E2E3;}
	.st212{clip-path:url(#SVGID_4_);fill:#E4E4E5;}
	.st213{clip-path:url(#SVGID_4_);fill:#E6E6E7;}
	.st214{clip-path:url(#SVGID_4_);fill:#ECECED;}
	.st215{clip-path:url(#SVGID_4_);fill:#EEEEEF;}
	.st216{clip-path:url(#SVGID_4_);fill:#F0F0F1;}
	.st217{clip-path:url(#SVGID_4_);fill:#F2F2F3;}
	.st218{clip-path:url(#SVGID_4_);fill:#F6F6F7;}
	.st219{clip-path:url(#SVGID_4_);fill:#F9F8F9;}
	.st220{clip-path:url(#SVGID_4_);fill:#FBFBFB;}
	.st221{clip-path:url(#SVGID_4_);fill:#FDFDFD;}
</style>
<g>
	<path class="st0" d="M24.5,71.5c0.1,0.1,0.1,0.2,0.2,0.3c0.1,0.1,0.2,0.1,0.4,0.1c0.1,0,0.3,0,0.4,0c0.1,0,0.2,0,0.3,0
		c0.1,0,0.2-0.1,0.3-0.1c0.1-0.1,0.2-0.1,0.2-0.2c0.1-0.1,0.1-0.2,0.1-0.3c0-0.1,0-0.2-0.1-0.2c0-0.1-0.1-0.1-0.2-0.2
		c-0.1,0-0.1-0.1-0.2-0.1c-0.1,0-0.2-0.1-0.2-0.1l-0.7-0.2c-0.1,0-0.2-0.1-0.3-0.1c-0.1,0-0.2-0.1-0.2-0.2c-0.1-0.1-0.1-0.1-0.2-0.2
		c0-0.1-0.1-0.2-0.1-0.3c0-0.1,0-0.2,0-0.3c0-0.1,0.1-0.2,0.2-0.3c0.1-0.1,0.2-0.2,0.4-0.2c0.2-0.1,0.3-0.1,0.6-0.1
		c0.2,0,0.3,0,0.5,0.1c0.2,0,0.3,0.1,0.4,0.2c0.1,0.1,0.2,0.2,0.3,0.3c0.1,0.1,0.1,0.3,0.1,0.5h-0.3c0-0.1,0-0.2-0.1-0.3
		c-0.1-0.1-0.1-0.2-0.2-0.2c-0.1-0.1-0.2-0.1-0.3-0.1c-0.1,0-0.2,0-0.3,0c-0.1,0-0.2,0-0.3,0c-0.1,0-0.2,0.1-0.3,0.1
		c-0.1,0.1-0.1,0.1-0.2,0.2c0,0.1-0.1,0.2-0.1,0.3c0,0.1,0,0.1,0,0.2c0,0.1,0.1,0.1,0.1,0.1c0,0,0.1,0.1,0.2,0.1
		c0.1,0,0.1,0,0.2,0.1l0.8,0.2c0.1,0,0.2,0.1,0.3,0.1c0.1,0,0.2,0.1,0.3,0.2c0.1,0.1,0.1,0.1,0.2,0.2c0,0.1,0.1,0.2,0.1,0.4
		c0,0,0,0.1,0,0.2c0,0.1,0,0.1-0.1,0.2c0,0.1-0.1,0.1-0.1,0.2c-0.1,0.1-0.1,0.1-0.2,0.2c-0.1,0.1-0.2,0.1-0.4,0.1
		c-0.1,0-0.3,0.1-0.5,0.1c-0.2,0-0.4,0-0.6-0.1c-0.2,0-0.3-0.1-0.4-0.2c-0.1-0.1-0.2-0.2-0.3-0.4c-0.1-0.1-0.1-0.3-0.1-0.5h0.3
		C24.4,71.3,24.4,71.4,24.5,71.5z"/>
	<path class="st0" d="M27.4,68.8v0.5h-0.3v-0.5H27.4z M27.4,69.8v2.4h-0.3v-2.4H27.4z"/>
	<path class="st0" d="M28.3,69.8v0.4h0c0.1-0.1,0.2-0.3,0.3-0.4c0.1-0.1,0.3-0.1,0.5-0.1c0.2,0,0.3,0,0.4,0.1c0.1,0,0.2,0.1,0.3,0.2
		c0.1,0.1,0.1,0.2,0.1,0.3c0,0.1,0,0.2,0,0.4v1.6h-0.3v-1.5c0-0.1,0-0.2,0-0.3c0-0.1-0.1-0.2-0.1-0.2c0-0.1-0.1-0.1-0.2-0.2
		c-0.1,0-0.2-0.1-0.3-0.1c-0.1,0-0.2,0-0.3,0.1c-0.1,0-0.2,0.1-0.2,0.2c-0.1,0.1-0.1,0.2-0.2,0.3c0,0.1-0.1,0.2-0.1,0.3v1.4H28v-2.4
		H28.3z"/>
	<path class="st0" d="M30.6,70.2c0.1-0.1,0.1-0.2,0.2-0.3c0.1-0.1,0.2-0.1,0.3-0.1c0.1,0,0.2,0,0.4,0c0.1,0,0.2,0,0.3,0
		c0.1,0,0.2,0.1,0.3,0.1c0.1,0.1,0.2,0.1,0.2,0.2c0.1,0.1,0.1,0.2,0.1,0.4v1.3c0,0.1,0.1,0.2,0.2,0.2c0,0,0.1,0,0.1,0v0.2
		c0,0-0.1,0-0.1,0c0,0-0.1,0-0.1,0c-0.1,0-0.1,0-0.2,0c0,0-0.1,0-0.1-0.1c0,0,0-0.1,0-0.1c0-0.1,0-0.1,0-0.2h0
		c-0.1,0.1-0.1,0.1-0.2,0.2c-0.1,0.1-0.1,0.1-0.2,0.2c-0.1,0-0.1,0.1-0.2,0.1c-0.1,0-0.2,0-0.3,0c-0.1,0-0.2,0-0.3,0
		c-0.1,0-0.2-0.1-0.3-0.1c-0.1-0.1-0.1-0.1-0.2-0.2c0-0.1-0.1-0.2-0.1-0.3c0-0.2,0-0.3,0.1-0.4c0.1-0.1,0.2-0.2,0.3-0.2
		c0.1-0.1,0.3-0.1,0.4-0.1c0.2,0,0.3,0,0.5-0.1c0.1,0,0.1,0,0.2,0c0,0,0.1,0,0.1,0c0,0,0.1-0.1,0.1-0.1c0,0,0-0.1,0-0.2
		c0-0.1,0-0.2,0-0.2c0-0.1-0.1-0.1-0.1-0.2c-0.1,0-0.1-0.1-0.2-0.1c-0.1,0-0.2,0-0.2,0c-0.2,0-0.3,0-0.5,0.1
		c-0.1,0.1-0.2,0.2-0.2,0.4h-0.3C30.5,70.4,30.6,70.3,30.6,70.2z M32.1,70.9c0,0-0.1,0.1-0.1,0.1c-0.1,0-0.1,0-0.1,0
		c-0.1,0-0.3,0-0.4,0.1c-0.1,0-0.3,0-0.4,0.1c-0.1,0-0.2,0.1-0.3,0.1c-0.1,0.1-0.1,0.2-0.1,0.3c0,0.1,0,0.1,0,0.2
		c0,0.1,0.1,0.1,0.1,0.2c0.1,0,0.1,0.1,0.2,0.1c0.1,0,0.1,0,0.2,0c0.1,0,0.2,0,0.3-0.1c0.1,0,0.2-0.1,0.3-0.2
		c0.1-0.1,0.1-0.1,0.2-0.2c0-0.1,0.1-0.2,0.1-0.3L32.1,70.9L32.1,70.9z"/>
	<path class="st0" d="M33.3,69.8v0.5h0c0.1-0.2,0.2-0.3,0.3-0.4c0.2-0.1,0.3-0.1,0.5-0.1c0.2,0,0.3,0,0.5,0.1
		c0.1,0.1,0.3,0.2,0.3,0.3s0.2,0.3,0.2,0.4c0,0.2,0.1,0.3,0.1,0.5c0,0.2,0,0.3-0.1,0.5c0,0.2-0.1,0.3-0.2,0.4
		c-0.1,0.1-0.2,0.2-0.3,0.3c-0.1,0.1-0.3,0.1-0.5,0.1c-0.1,0-0.2,0-0.3,0c-0.1,0-0.2-0.1-0.2-0.1c-0.1,0-0.1-0.1-0.2-0.2
		c-0.1-0.1-0.1-0.1-0.1-0.2h0v1.4H33v-3.3H33.3z M34.9,70.6c0-0.1-0.1-0.2-0.1-0.3c-0.1-0.1-0.1-0.2-0.2-0.2
		C34.4,70,34.3,70,34.1,70c-0.2,0-0.3,0-0.4,0.1c-0.1,0.1-0.2,0.1-0.3,0.2c-0.1,0.1-0.1,0.2-0.1,0.3c0,0.1,0,0.3,0,0.4
		c0,0.1,0,0.3,0,0.4c0,0.1,0.1,0.2,0.1,0.3c0.1,0.1,0.2,0.2,0.3,0.2C33.8,72,34,72,34.1,72c0.1,0,0.3,0,0.4-0.1
		c0.1-0.1,0.2-0.1,0.2-0.2c0.1-0.1,0.1-0.2,0.1-0.3c0-0.1,0-0.2,0-0.4C34.9,70.9,34.9,70.7,34.9,70.6z"/>
	<path class="st0" d="M37.1,70.3c0-0.1-0.1-0.1-0.1-0.2c-0.1,0-0.1-0.1-0.2-0.1c-0.1,0-0.2,0-0.2,0c-0.1,0-0.1,0-0.2,0
		c-0.1,0-0.1,0-0.2,0.1c-0.1,0-0.1,0.1-0.1,0.1c0,0.1-0.1,0.1-0.1,0.2c0,0.1,0,0.1,0,0.2c0,0,0.1,0.1,0.1,0.1c0.1,0,0.1,0.1,0.2,0.1
		c0.1,0,0.1,0,0.2,0l0.4,0.1c0.1,0,0.2,0,0.3,0.1c0.1,0,0.2,0.1,0.2,0.1c0.1,0.1,0.1,0.1,0.2,0.2c0,0.1,0.1,0.2,0.1,0.3
		c0,0.1,0,0.2-0.1,0.3c-0.1,0.1-0.1,0.2-0.2,0.2c-0.1,0.1-0.2,0.1-0.3,0.1c-0.1,0-0.2,0-0.3,0c-0.3,0-0.5-0.1-0.7-0.2
		c-0.2-0.1-0.3-0.4-0.3-0.6h0.3c0,0.2,0.1,0.4,0.2,0.5c0.1,0.1,0.3,0.2,0.5,0.2c0.1,0,0.1,0,0.2,0c0.1,0,0.1,0,0.2-0.1
		c0.1,0,0.1-0.1,0.2-0.1c0-0.1,0.1-0.1,0.1-0.2c0-0.1,0-0.1,0-0.2c0,0-0.1-0.1-0.1-0.1c-0.1,0-0.1-0.1-0.2-0.1c-0.1,0-0.1,0-0.2-0.1
		L36.3,71C36.2,71,36.1,71,36,71c-0.1,0-0.2-0.1-0.2-0.1c-0.1,0-0.1-0.1-0.1-0.2c0-0.1-0.1-0.2-0.1-0.3c0-0.1,0-0.2,0.1-0.3
		c0.1-0.1,0.1-0.2,0.2-0.2c0.1-0.1,0.2-0.1,0.3-0.1c0.1,0,0.2,0,0.3,0c0.1,0,0.2,0,0.3,0c0.1,0,0.2,0.1,0.3,0.1
		c0.1,0.1,0.1,0.1,0.2,0.2c0,0.1,0.1,0.2,0.1,0.3h-0.3C37.1,70.4,37.1,70.3,37.1,70.3z"/>
	<path class="st0" d="M38.3,68.8v0.5H38v-0.5H38.3z M38.3,69.8v2.4H38v-2.4H38.3z"/>
	<path class="st0" d="M40.2,70.3c0-0.1-0.1-0.1-0.1-0.2C40,70,40,70,39.9,70c-0.1,0-0.2,0-0.2,0c-0.1,0-0.1,0-0.2,0
		c-0.1,0-0.1,0-0.2,0.1c-0.1,0-0.1,0.1-0.1,0.1c0,0.1-0.1,0.1-0.1,0.2c0,0.1,0,0.1,0,0.2c0,0,0.1,0.1,0.1,0.1c0.1,0,0.1,0.1,0.2,0.1
		c0.1,0,0.1,0,0.2,0l0.4,0.1c0.1,0,0.2,0,0.3,0.1c0.1,0,0.2,0.1,0.2,0.1c0.1,0.1,0.1,0.1,0.2,0.2c0,0.1,0.1,0.2,0.1,0.3
		c0,0.1,0,0.2-0.1,0.3c-0.1,0.1-0.1,0.2-0.2,0.2c-0.1,0.1-0.2,0.1-0.3,0.1c-0.1,0-0.2,0-0.3,0c-0.3,0-0.5-0.1-0.7-0.2
		c-0.2-0.1-0.3-0.4-0.3-0.6H39c0,0.2,0.1,0.4,0.2,0.5c0.1,0.1,0.3,0.2,0.5,0.2c0.1,0,0.1,0,0.2,0c0.1,0,0.1,0,0.2-0.1
		c0.1,0,0.1-0.1,0.2-0.1c0-0.1,0.1-0.1,0.1-0.2c0-0.1,0-0.1,0-0.2c0,0-0.1-0.1-0.1-0.1c-0.1,0-0.1-0.1-0.2-0.1c-0.1,0-0.1,0-0.2-0.1
		L39.4,71c-0.1,0-0.2-0.1-0.3-0.1c-0.1,0-0.2-0.1-0.2-0.1c-0.1,0-0.1-0.1-0.1-0.2c0-0.1-0.1-0.2-0.1-0.3c0-0.1,0-0.2,0.1-0.3
		c0.1-0.1,0.1-0.2,0.2-0.2c0.1-0.1,0.2-0.1,0.3-0.1c0.1,0,0.2,0,0.3,0c0.1,0,0.2,0,0.3,0c0.1,0,0.2,0.1,0.3,0.1
		c0.1,0.1,0.1,0.1,0.2,0.2c0,0.1,0.1,0.2,0.1,0.3h-0.3C40.3,70.4,40.3,70.3,40.2,70.3z"/>
	<path class="st0" d="M42.7,69.8v0.5h0c0.1-0.2,0.2-0.3,0.3-0.4c0.2-0.1,0.3-0.1,0.5-0.1c0.2,0,0.3,0,0.5,0.1
		c0.1,0.1,0.3,0.2,0.3,0.3c0.1,0.1,0.2,0.3,0.2,0.4c0,0.2,0.1,0.3,0.1,0.5c0,0.2,0,0.3-0.1,0.5c0,0.2-0.1,0.3-0.2,0.4
		c-0.1,0.1-0.2,0.2-0.3,0.3c-0.1,0.1-0.3,0.1-0.5,0.1c-0.1,0-0.2,0-0.3,0c-0.1,0-0.2-0.1-0.2-0.1c-0.1,0-0.1-0.1-0.2-0.2
		c-0.1-0.1-0.1-0.1-0.1-0.2h0v1.4h-0.3v-3.3H42.7z M44.3,70.6c0-0.1-0.1-0.2-0.1-0.3c-0.1-0.1-0.1-0.2-0.2-0.2
		C43.8,70,43.7,70,43.5,70c-0.2,0-0.3,0-0.4,0.1c-0.1,0.1-0.2,0.1-0.3,0.2c-0.1,0.1-0.1,0.2-0.1,0.3c0,0.1,0,0.3,0,0.4
		c0,0.1,0,0.3,0,0.4c0,0.1,0.1,0.2,0.1,0.3c0.1,0.1,0.2,0.2,0.3,0.2c0.1,0.1,0.2,0.1,0.4,0.1c0.1,0,0.3,0,0.4-0.1
		c0.1-0.1,0.2-0.1,0.2-0.2c0.1-0.1,0.1-0.2,0.1-0.3c0-0.1,0-0.2,0-0.4C44.3,70.9,44.3,70.7,44.3,70.6z"/>
	<path class="st0" d="M45.2,70.2c0.1-0.1,0.1-0.2,0.2-0.3c0.1-0.1,0.2-0.1,0.3-0.1c0.1,0,0.2,0,0.4,0c0.1,0,0.2,0,0.3,0
		c0.1,0,0.2,0.1,0.3,0.1c0.1,0.1,0.2,0.1,0.2,0.2c0.1,0.1,0.1,0.2,0.1,0.4v1.3c0,0.1,0.1,0.2,0.2,0.2c0,0,0.1,0,0.1,0v0.2
		c0,0-0.1,0-0.1,0c0,0-0.1,0-0.1,0c-0.1,0-0.1,0-0.2,0c0,0-0.1,0-0.1-0.1c0,0,0-0.1,0-0.1c0-0.1,0-0.1,0-0.2h0
		c-0.1,0.1-0.1,0.1-0.2,0.2c-0.1,0.1-0.1,0.1-0.2,0.2c-0.1,0-0.1,0.1-0.2,0.1c-0.1,0-0.2,0-0.3,0c-0.1,0-0.2,0-0.3,0
		c-0.1,0-0.2-0.1-0.3-0.1C45.1,72,45.1,72,45,71.9c0-0.1-0.1-0.2-0.1-0.3c0-0.2,0-0.3,0.1-0.4c0.1-0.1,0.2-0.2,0.3-0.2
		c0.1-0.1,0.3-0.1,0.4-0.1c0.2,0,0.3,0,0.5-0.1c0.1,0,0.1,0,0.2,0c0,0,0.1,0,0.1,0c0,0,0.1-0.1,0.1-0.1c0,0,0-0.1,0-0.2
		c0-0.1,0-0.2,0-0.2c0-0.1-0.1-0.1-0.1-0.2c-0.1,0-0.1-0.1-0.2-0.1c-0.1,0-0.2,0-0.2,0c-0.2,0-0.3,0-0.5,0.1
		c-0.1,0.1-0.2,0.2-0.2,0.4h-0.3C45.1,70.4,45.1,70.3,45.2,70.2z M46.6,70.9c0,0-0.1,0.1-0.1,0.1c-0.1,0-0.1,0-0.1,0
		c-0.1,0-0.3,0-0.4,0.1c-0.1,0-0.3,0-0.4,0.1c-0.1,0-0.2,0.1-0.3,0.1c-0.1,0.1-0.1,0.2-0.1,0.3c0,0.1,0,0.1,0,0.2
		c0,0.1,0.1,0.1,0.1,0.2c0.1,0,0.1,0.1,0.2,0.1c0.1,0,0.1,0,0.2,0c0.1,0,0.2,0,0.3-0.1c0.1,0,0.2-0.1,0.3-0.2
		c0.1-0.1,0.1-0.1,0.2-0.2c0-0.1,0.1-0.2,0.1-0.3L46.6,70.9L46.6,70.9z"/>
	<path class="st0" d="M47.8,69.8v0.6h0c0.1-0.2,0.2-0.4,0.4-0.5c0.2-0.1,0.3-0.2,0.6-0.1V70c-0.1,0-0.3,0-0.4,0.1
		c-0.1,0-0.2,0.1-0.3,0.2c-0.1,0.1-0.1,0.2-0.2,0.3c0,0.1-0.1,0.2-0.1,0.4v1.3h-0.3v-2.4H47.8z"/>
	<path class="st0" d="M49.1,70.2c0.1-0.1,0.1-0.2,0.2-0.3c0.1-0.1,0.2-0.1,0.3-0.1c0.1,0,0.2,0,0.4,0c0.1,0,0.2,0,0.3,0
		c0.1,0,0.2,0.1,0.3,0.1c0.1,0.1,0.2,0.1,0.2,0.2c0.1,0.1,0.1,0.2,0.1,0.4v1.3c0,0.1,0.1,0.2,0.2,0.2c0,0,0.1,0,0.1,0v0.2
		c0,0-0.1,0-0.1,0c0,0-0.1,0-0.1,0c-0.1,0-0.1,0-0.2,0c0,0-0.1,0-0.1-0.1c0,0,0-0.1,0-0.1c0-0.1,0-0.1,0-0.2h0
		c-0.1,0.1-0.1,0.1-0.2,0.2c-0.1,0.1-0.1,0.1-0.2,0.2c-0.1,0-0.1,0.1-0.2,0.1c-0.1,0-0.2,0-0.3,0c-0.1,0-0.2,0-0.3,0
		c-0.1,0-0.2-0.1-0.3-0.1C49.1,72,49,72,49,71.9c0-0.1-0.1-0.2-0.1-0.3c0-0.2,0-0.3,0.1-0.4c0.1-0.1,0.2-0.2,0.3-0.2
		c0.1-0.1,0.3-0.1,0.4-0.1c0.2,0,0.3,0,0.5-0.1c0.1,0,0.1,0,0.2,0c0,0,0.1,0,0.1,0c0,0,0.1-0.1,0.1-0.1c0,0,0-0.1,0-0.2
		c0-0.1,0-0.2,0-0.2c0-0.1-0.1-0.1-0.1-0.2c-0.1,0-0.1-0.1-0.2-0.1c-0.1,0-0.2,0-0.2,0c-0.2,0-0.3,0-0.5,0.1
		c-0.1,0.1-0.2,0.2-0.2,0.4H49C49,70.4,49,70.3,49.1,70.2z M50.6,70.9c0,0-0.1,0.1-0.1,0.1c-0.1,0-0.1,0-0.1,0c-0.1,0-0.3,0-0.4,0.1
		c-0.1,0-0.3,0-0.4,0.1c-0.1,0-0.2,0.1-0.3,0.1c-0.1,0.1-0.1,0.2-0.1,0.3c0,0.1,0,0.1,0,0.2c0,0.1,0.1,0.1,0.1,0.2
		c0.1,0,0.1,0.1,0.2,0.1c0.1,0,0.1,0,0.2,0c0.1,0,0.2,0,0.3-0.1c0.1,0,0.2-0.1,0.3-0.2c0.1-0.1,0.1-0.1,0.2-0.2
		c0-0.1,0.1-0.2,0.1-0.3L50.6,70.9L50.6,70.9z"/>
	<path class="st0" d="M53,71.4c0,0.1,0.1,0.2,0.1,0.3c0.1,0.1,0.1,0.2,0.2,0.2c0.1,0.1,0.2,0.1,0.4,0.1c0.2,0,0.4-0.1,0.5-0.2
		c0.1-0.1,0.2-0.3,0.3-0.5h0.3c-0.1,0.3-0.2,0.5-0.3,0.6c-0.2,0.2-0.4,0.2-0.7,0.2c-0.2,0-0.4,0-0.5-0.1c-0.1-0.1-0.3-0.2-0.3-0.3
		c-0.1-0.1-0.2-0.3-0.2-0.4c0-0.2-0.1-0.3-0.1-0.5c0-0.2,0-0.3,0.1-0.5c0-0.2,0.1-0.3,0.2-0.4c0.1-0.1,0.2-0.2,0.3-0.3
		c0.1-0.1,0.3-0.1,0.5-0.1c0.2,0,0.4,0,0.5,0.1c0.1,0.1,0.3,0.2,0.3,0.3c0.1,0.1,0.1,0.3,0.2,0.4c0,0.2,0.1,0.3,0,0.5h-1.9
		C52.9,71.2,53,71.3,53,71.4z M54.5,70.5c0-0.1-0.1-0.2-0.2-0.3c-0.1-0.1-0.1-0.1-0.2-0.2C54,70,53.9,70,53.7,70
		c-0.1,0-0.2,0-0.3,0.1c-0.1,0-0.2,0.1-0.2,0.2c-0.1,0.1-0.1,0.2-0.2,0.3c0,0.1-0.1,0.2-0.1,0.3h1.6C54.5,70.7,54.5,70.6,54.5,70.5z
		"/>
	<path class="st0" d="M55.5,68.8v3.4h-0.3v-3.4H55.5z"/>
	<path class="st0" d="M59.3,72.2v-0.5h0c0,0.1-0.1,0.2-0.1,0.2c-0.1,0.1-0.1,0.1-0.2,0.2c-0.1,0-0.2,0.1-0.3,0.1c-0.1,0-0.2,0-0.3,0
		c-0.2,0-0.3,0-0.5-0.1c-0.1-0.1-0.3-0.2-0.3-0.3c-0.1-0.1-0.2-0.3-0.2-0.4c0-0.2-0.1-0.3-0.1-0.5c0-0.2,0-0.3,0.1-0.5
		s0.1-0.3,0.2-0.4c0.1-0.1,0.2-0.2,0.3-0.3c0.1-0.1,0.3-0.1,0.5-0.1c0.1,0,0.2,0,0.3,0c0.1,0,0.2,0.1,0.2,0.1c0.1,0,0.1,0.1,0.2,0.2
		c0.1,0.1,0.1,0.1,0.1,0.2h0v-1.4h0.3v3.4H59.3z M57.6,71.4c0,0.1,0.1,0.2,0.1,0.3c0.1,0.1,0.1,0.2,0.2,0.2c0.1,0.1,0.2,0.1,0.4,0.1
		c0.2,0,0.3,0,0.4-0.1c0.1-0.1,0.2-0.1,0.3-0.2c0.1-0.1,0.1-0.2,0.1-0.3c0-0.1,0-0.2,0-0.4c0-0.1,0-0.3,0-0.4c0-0.1-0.1-0.2-0.1-0.3
		c-0.1-0.1-0.2-0.2-0.3-0.2C58.7,70,58.5,70,58.4,70c-0.1,0-0.3,0-0.4,0.1c-0.1,0.1-0.2,0.1-0.2,0.2c-0.1,0.1-0.1,0.2-0.1,0.3
		c0,0.1,0,0.2,0,0.4C57.6,71.1,57.6,71.2,57.6,71.4z"/>
	<path class="st0" d="M60.3,71.4c0,0.1,0.1,0.2,0.1,0.3c0.1,0.1,0.1,0.2,0.2,0.2c0.1,0.1,0.2,0.1,0.4,0.1c0.2,0,0.4-0.1,0.5-0.2
		c0.1-0.1,0.2-0.3,0.3-0.5h0.3c-0.1,0.3-0.2,0.5-0.3,0.6c-0.2,0.2-0.4,0.2-0.7,0.2c-0.2,0-0.4,0-0.5-0.1c-0.1-0.1-0.3-0.2-0.3-0.3
		c-0.1-0.1-0.2-0.3-0.2-0.4c0-0.2-0.1-0.3-0.1-0.5c0-0.2,0-0.3,0.1-0.5c0-0.2,0.1-0.3,0.2-0.4c0.1-0.1,0.2-0.2,0.3-0.3
		c0.1-0.1,0.3-0.1,0.5-0.1c0.2,0,0.4,0,0.5,0.1c0.1,0.1,0.3,0.2,0.3,0.3c0.1,0.1,0.1,0.3,0.2,0.4c0,0.2,0.1,0.3,0,0.5h-1.9
		C60.3,71.2,60.3,71.3,60.3,71.4z M61.8,70.5c0-0.1-0.1-0.2-0.2-0.3c-0.1-0.1-0.1-0.1-0.2-0.2c-0.1,0-0.2-0.1-0.3-0.1
		c-0.1,0-0.2,0-0.3,0.1c-0.1,0-0.2,0.1-0.2,0.2c-0.1,0.1-0.1,0.2-0.2,0.3c0,0.1-0.1,0.2-0.1,0.3h1.6C61.8,70.7,61.8,70.6,61.8,70.5z
		"/>
	<path class="st0" d="M63.9,70.3c0-0.1-0.1-0.1-0.1-0.2c-0.1,0-0.1-0.1-0.2-0.1c-0.1,0-0.2,0-0.2,0c-0.1,0-0.1,0-0.2,0
		C63.1,70,63,70,63,70c-0.1,0-0.1,0.1-0.1,0.1c0,0.1-0.1,0.1-0.1,0.2c0,0.1,0,0.1,0,0.2c0,0,0.1,0.1,0.1,0.1c0.1,0,0.1,0.1,0.2,0.1
		c0.1,0,0.1,0,0.2,0l0.4,0.1c0.1,0,0.2,0,0.3,0.1c0.1,0,0.2,0.1,0.2,0.1c0.1,0.1,0.1,0.1,0.2,0.2c0,0.1,0.1,0.2,0.1,0.3
		c0,0.1,0,0.2-0.1,0.3c-0.1,0.1-0.1,0.2-0.2,0.2c-0.1,0.1-0.2,0.1-0.3,0.1c-0.1,0-0.2,0-0.3,0c-0.3,0-0.5-0.1-0.7-0.2
		c-0.2-0.1-0.3-0.4-0.3-0.6h0.3c0,0.2,0.1,0.4,0.2,0.5c0.1,0.1,0.3,0.2,0.5,0.2c0.1,0,0.1,0,0.2,0c0.1,0,0.1,0,0.2-0.1
		c0.1,0,0.1-0.1,0.2-0.1c0-0.1,0.1-0.1,0.1-0.2c0-0.1,0-0.1,0-0.2c0,0-0.1-0.1-0.1-0.1c-0.1,0-0.1-0.1-0.2-0.1c-0.1,0-0.1,0-0.2-0.1
		L63.2,71C63.1,71,63,71,62.9,71c-0.1,0-0.2-0.1-0.2-0.1c-0.1,0-0.1-0.1-0.1-0.2c0-0.1-0.1-0.2-0.1-0.3c0-0.1,0-0.2,0.1-0.3
		c0.1-0.1,0.1-0.2,0.2-0.2c0.1-0.1,0.2-0.1,0.3-0.1c0.1,0,0.2,0,0.3,0c0.1,0,0.2,0,0.3,0c0.1,0,0.2,0.1,0.3,0.1
		c0.1,0.1,0.1,0.1,0.2,0.2c0,0.1,0.1,0.2,0.1,0.3H64C64,70.4,64,70.3,63.9,70.3z"/>
	<path class="st0" d="M64.9,70.2c0.1-0.1,0.1-0.2,0.2-0.3c0.1-0.1,0.2-0.1,0.3-0.1c0.1,0,0.2,0,0.4,0c0.1,0,0.2,0,0.3,0
		c0.1,0,0.2,0.1,0.3,0.1c0.1,0.1,0.2,0.1,0.2,0.2c0.1,0.1,0.1,0.2,0.1,0.4v1.3c0,0.1,0.1,0.2,0.2,0.2c0,0,0.1,0,0.1,0v0.2
		c0,0-0.1,0-0.1,0c0,0-0.1,0-0.1,0c-0.1,0-0.1,0-0.2,0c0,0-0.1,0-0.1-0.1c0,0,0-0.1,0-0.1c0-0.1,0-0.1,0-0.2h0
		c-0.1,0.1-0.1,0.1-0.2,0.2c-0.1,0.1-0.1,0.1-0.2,0.2c-0.1,0-0.1,0.1-0.2,0.1c-0.1,0-0.2,0-0.3,0c-0.1,0-0.2,0-0.3,0
		c-0.1,0-0.2-0.1-0.3-0.1c-0.1-0.1-0.1-0.1-0.2-0.2c0-0.1-0.1-0.2-0.1-0.3c0-0.2,0-0.3,0.1-0.4c0.1-0.1,0.2-0.2,0.3-0.2
		c0.1-0.1,0.3-0.1,0.4-0.1c0.2,0,0.3,0,0.5-0.1c0.1,0,0.1,0,0.2,0c0,0,0.1,0,0.1,0c0,0,0.1-0.1,0.1-0.1c0,0,0-0.1,0-0.2
		c0-0.1,0-0.2,0-0.2c0-0.1-0.1-0.1-0.1-0.2C66.1,70,66,70,66,70c-0.1,0-0.2,0-0.2,0c-0.2,0-0.3,0-0.5,0.1c-0.1,0.1-0.2,0.2-0.2,0.4
		h-0.3C64.8,70.4,64.8,70.3,64.9,70.2z M66.4,70.9c0,0-0.1,0.1-0.1,0.1c-0.1,0-0.1,0-0.1,0c-0.1,0-0.3,0-0.4,0.1
		c-0.1,0-0.3,0-0.4,0.1c-0.1,0-0.2,0.1-0.3,0.1C65,71.3,65,71.4,65,71.5c0,0.1,0,0.1,0,0.2c0,0.1,0.1,0.1,0.1,0.2
		c0.1,0,0.1,0.1,0.2,0.1c0.1,0,0.1,0,0.2,0c0.1,0,0.2,0,0.3-0.1c0.1,0,0.2-0.1,0.3-0.2c0.1-0.1,0.1-0.1,0.2-0.2
		c0-0.1,0.1-0.2,0.1-0.3L66.4,70.9L66.4,70.9z"/>
	<path class="st0" d="M67.5,69.8v0.6h0c0.1-0.2,0.2-0.4,0.4-0.5c0.2-0.1,0.3-0.2,0.6-0.1V70c-0.1,0-0.3,0-0.4,0.1
		c-0.1,0-0.2,0.1-0.3,0.2c-0.1,0.1-0.1,0.2-0.2,0.3c0,0.1-0.1,0.2-0.1,0.4v1.3h-0.3v-2.4H67.5z"/>
	<path class="st0" d="M69,69.8v0.6h0c0.1-0.2,0.2-0.4,0.4-0.5c0.2-0.1,0.3-0.2,0.6-0.1V70c-0.1,0-0.3,0-0.4,0.1
		c-0.1,0-0.2,0.1-0.3,0.2c-0.1,0.1-0.1,0.2-0.2,0.3c0,0.1-0.1,0.2-0.1,0.4v1.3h-0.3v-2.4H69z"/>
	<path class="st0" d="M71.7,69.8c0.1,0.1,0.3,0.2,0.4,0.3c0.1,0.1,0.2,0.3,0.2,0.4c0.1,0.2,0.1,0.3,0.1,0.5c0,0.2,0,0.3-0.1,0.5
		c-0.1,0.2-0.1,0.3-0.2,0.4c-0.1,0.1-0.2,0.2-0.4,0.3c-0.1,0.1-0.3,0.1-0.5,0.1c-0.2,0-0.3,0-0.5-0.1c-0.1-0.1-0.3-0.2-0.4-0.3
		c-0.1-0.1-0.2-0.3-0.2-0.4C70,71.3,70,71.2,70,71c0-0.2,0-0.3,0.1-0.5c0.1-0.2,0.1-0.3,0.2-0.4c0.1-0.1,0.2-0.2,0.4-0.3
		c0.1-0.1,0.3-0.1,0.5-0.1C71.3,69.7,71.5,69.7,71.7,69.8z M70.8,70c-0.1,0.1-0.2,0.1-0.3,0.2c-0.1,0.1-0.1,0.2-0.2,0.3
		c0,0.1-0.1,0.3-0.1,0.4c0,0.1,0,0.3,0.1,0.4c0,0.1,0.1,0.2,0.2,0.3c0.1,0.1,0.2,0.2,0.3,0.2C70.9,72,71,72,71.2,72s0.3,0,0.4-0.1
		c0.1-0.1,0.2-0.1,0.3-0.2c0.1-0.1,0.1-0.2,0.2-0.3c0-0.1,0.1-0.3,0.1-0.4c0-0.1,0-0.3-0.1-0.4c0-0.1-0.1-0.2-0.2-0.3
		c-0.1-0.1-0.2-0.2-0.3-0.2C71.4,70,71.3,70,71.2,70S70.9,70,70.8,70z"/>
	<path class="st0" d="M73.1,68.8v3.4h-0.3v-3.4H73.1z"/>
	<path class="st0" d="M73.9,68.8v3.4h-0.3v-3.4H73.9z"/>
	<path class="st0" d="M76,69.8c0.1,0.1,0.3,0.2,0.4,0.3c0.1,0.1,0.2,0.3,0.2,0.4c0.1,0.2,0.1,0.3,0.1,0.5c0,0.2,0,0.3-0.1,0.5
		c-0.1,0.2-0.1,0.3-0.2,0.4c-0.1,0.1-0.2,0.2-0.4,0.3c-0.1,0.1-0.3,0.1-0.5,0.1s-0.3,0-0.5-0.1c-0.1-0.1-0.3-0.2-0.4-0.3
		c-0.1-0.1-0.2-0.3-0.2-0.4c-0.1-0.2-0.1-0.3-0.1-0.5c0-0.2,0-0.3,0.1-0.5c0.1-0.2,0.1-0.3,0.2-0.4c0.1-0.1,0.2-0.2,0.4-0.3
		c0.1-0.1,0.3-0.1,0.5-0.1S75.9,69.7,76,69.8z M75.1,70c-0.1,0.1-0.2,0.1-0.3,0.2c-0.1,0.1-0.1,0.2-0.2,0.3c0,0.1-0.1,0.3-0.1,0.4
		c0,0.1,0,0.3,0.1,0.4c0,0.1,0.1,0.2,0.2,0.3c0.1,0.1,0.2,0.2,0.3,0.2c0.1,0.1,0.2,0.1,0.4,0.1s0.3,0,0.4-0.1
		c0.1-0.1,0.2-0.1,0.3-0.2c0.1-0.1,0.1-0.2,0.2-0.3c0-0.1,0.1-0.3,0.1-0.4c0-0.1,0-0.3-0.1-0.4c0-0.1-0.1-0.2-0.2-0.3
		c-0.1-0.1-0.2-0.2-0.3-0.2C75.8,70,75.7,70,75.5,70S75.3,70,75.1,70z"/>
</g>
<path class="st1" d="M5.9,62.9V66c0,0.3-0.1,0.6-0.2,0.7C5.5,66.9,5.3,67,5,67H5c-0.3,0-0.5-0.1-0.6-0.3c-0.1-0.2-0.2-0.4-0.2-0.8
	c0,0,0,0,0,0s0,0,0,0c0,0,0,0,0,0s0,0,0,0c0,0,0,0,0,0s0,0,0,0l0.4,0c0,0,0,0,0,0s0,0,0,0c0,0,0,0,0,0s0,0,0,0c0,0,0,0,0,0
	c0,0,0,0,0,0c0,0.3,0,0.4,0.1,0.5c0.1,0.1,0.1,0.2,0.2,0.2c0,0,0,0,0.1,0c0,0,0,0,0.1,0c0.2,0,0.3,0,0.4-0.1
	c0.1-0.1,0.1-0.2,0.1-0.5v-3.1H5.9z"/>
<path class="st1" d="M8.8,62.9l1.1,4H9.5l-0.3-1.3H8l-0.3,1.3H7.3l1.1-4H8.8z M8.1,65.3h1l-0.6-2L8.1,65.3z"/>
<path class="st1" d="M11.7,62.9v4h-0.4v-4H11.7z"/>
<path class="st1" d="M13.6,62.9h0.6l0.9,3.5l1-3.5h0.6v4h-0.4v-3.6l-1,3.6H15l-1-3.5v3.5h-0.4V62.9z"/>
<path class="st1" d="M20.4,62.9v0.4h-1.4v1.3h1.3V65h-1.3v1.6h1.4v0.4h-1.9v-4H20.4z"/>
<path class="st1" d="M27,62.9l1.1,4h-0.4l-0.3-1.3h-1.2l-0.3,1.3h-0.4l1.1-4H27z M26.3,65.3h1l-0.6-2L26.3,65.3z"/>
<path class="st1" d="M30.5,62.9c0.4,0,0.6,0.1,0.8,0.3c0.2,0.2,0.3,0.4,0.3,0.6c0,0,0,0,0,0.1c0,0,0,0,0,0.1c0,0,0,0,0,0
	c0,0,0,0,0,0c0,0.2-0.1,0.4-0.2,0.6c-0.1,0.2-0.3,0.3-0.5,0.3c0,0,0,0,0,0c0,0,0,0,0,0c0.2,0.1,0.3,0.2,0.4,0.4
	c0.1,0.2,0.1,0.5,0.1,1c0,0,0,0.1,0,0.1c0,0,0,0.1,0,0.1c0,0.1,0,0.2,0,0.2c0,0.1,0.1,0.1,0.1,0.1v0.1h-0.4c0-0.1-0.1-0.1-0.1-0.2
	c0-0.1,0-0.1,0-0.2c0,0,0-0.1,0-0.1c0,0,0-0.1,0-0.1c0,0,0-0.1,0-0.1c0,0,0-0.1,0-0.1c0-0.1,0-0.1,0-0.2c0-0.1,0-0.1,0-0.2
	c0-0.2-0.1-0.3-0.2-0.5c-0.1-0.1-0.2-0.2-0.5-0.2h-0.6v1.9h-0.4v-4H30.5z M29.9,64.7h0.6c0,0,0,0,0,0c0,0,0,0,0,0c0,0,0,0,0,0
	c0,0,0,0,0,0c0.2,0,0.3-0.1,0.4-0.2c0.1-0.2,0.2-0.3,0.2-0.5c0,0,0,0,0,0c0,0,0,0,0,0c0-0.2-0.1-0.3-0.2-0.5
	c-0.1-0.1-0.3-0.2-0.5-0.2l-0.6,0V64.7z"/>
<path class="st1" d="M35.2,62.9v0.4h-0.9v3.6h-0.4v-3.6h-0.9v-0.4H35.2z"/>
<path class="st1" d="M38.5,62.9v0.4h-1.4v1.3h1.3V65h-1.3v1.6h1.4v0.4h-1.9v-4H38.5z"/>
<path class="st1" d="M41.3,62.9l1.1,4H42l-0.3-1.3h-1.2l-0.3,1.3h-0.4l1.1-4H41.3z M40.6,65.3h1l-0.6-2L40.6,65.3z"/>
<path class="st1" d="M46,64.9v2h-0.3v-0.5c-0.1,0.2-0.2,0.3-0.3,0.4c-0.1,0.1-0.2,0.1-0.3,0.2c-0.1,0-0.1,0-0.2,0
	c-0.1,0-0.1,0-0.2,0c-0.1,0-0.1,0-0.2,0c-0.1,0-0.1,0-0.1,0c-0.2-0.1-0.4-0.3-0.5-0.5c-0.1-0.3-0.2-0.5-0.2-0.8c0-0.1,0-0.3,0-0.4
	c0-0.1,0-0.3,0-0.4c0,0,0-0.1,0-0.1c0,0,0-0.1,0-0.1c0,0,0-0.1,0-0.1c0,0,0-0.1,0-0.1c0,0,0,0,0-0.1c0,0,0,0,0-0.1
	c0-0.3,0.1-0.7,0.3-0.9c0.2-0.3,0.4-0.4,0.8-0.4l0.1,0c0.1,0,0.1,0,0.2,0c0.1,0,0.1,0,0.2,0c0.2,0,0.3,0.1,0.4,0.3
	c0.1,0.2,0.2,0.4,0.3,0.8l-0.3,0c0-0.3-0.1-0.4-0.2-0.6c-0.1-0.1-0.2-0.2-0.3-0.2c0,0-0.1,0-0.1,0c0,0-0.1,0-0.1,0c0,0-0.1,0-0.1,0
	c0,0-0.1,0-0.1,0c0,0-0.1,0-0.1,0c-0.2,0.1-0.3,0.2-0.3,0.4C44.1,63.8,44,64,44,64.3c0,0.1,0,0.2,0,0.3c0,0.1,0,0.2,0,0.3
	c0,0,0,0.1,0,0.1c0,0,0,0.1,0,0.1s0,0.1,0,0.1c0,0,0,0.1,0,0.1c0,0.4,0,0.7,0.1,0.9c0.1,0.2,0.2,0.4,0.3,0.4c0.1,0,0.1,0.1,0.2,0.1
	c0.1,0,0.1,0,0.2,0c0.2,0,0.4-0.1,0.6-0.4c0.2-0.2,0.3-0.6,0.3-1v-0.1h-0.8v-0.3H46z"/>
<path class="st1" d="M49,62.9l1.1,4h-0.4l-0.3-1.3h-1.2l-0.3,1.3h-0.4l1.1-4H49z M48.3,65.3h1l-0.6-2L48.3,65.3z"/>
<path class="st1" d="M57.1,66.8c-0.2,0.1-0.3,0.1-0.5,0.1c0,0,0,0,0,0c0,0,0,0,0,0c0,0,0,0,0,0c0,0,0,0,0,0c-0.3,0-0.5-0.1-0.7-0.3
	c-0.2-0.2-0.3-0.4-0.3-0.8c0,0,0,0,0,0c0,0,0,0,0,0c0,0,0,0,0,0c0,0,0,0,0,0c0,0,0,0,0,0c0-0.2,0-0.4,0.1-0.5
	c0.1-0.1,0.1-0.3,0.2-0.4c0.1-0.1,0.1-0.1,0.2-0.2s0.1-0.1,0.2-0.2c-0.1-0.1-0.1-0.1-0.1-0.2c0-0.1-0.1-0.1-0.1-0.2
	c0-0.1-0.1-0.2-0.1-0.3c0-0.1,0-0.2,0-0.3c0,0,0,0,0,0c0,0,0,0,0,0c0,0,0,0,0,0c0,0,0,0,0,0c0,0,0,0,0,0c0,0,0,0,0,0
	c0-0.2,0.1-0.3,0.2-0.4c0.1-0.1,0.3-0.2,0.5-0.2c0,0,0,0,0,0c0,0,0,0,0,0c0,0,0,0,0,0c0,0,0,0,0,0c0.2,0,0.3,0.1,0.5,0.2
	c0.1,0.1,0.2,0.3,0.2,0.6c0,0.2-0.1,0.4-0.2,0.6c-0.1,0.2-0.2,0.3-0.4,0.4c0,0-0.1,0-0.1,0.1c0,0-0.1,0-0.1,0.1l0.8,1.2
	c0-0.1,0.1-0.2,0.1-0.3c0-0.1,0-0.3,0-0.5l0.4,0c0,0.2,0,0.4-0.1,0.6c0,0.2-0.1,0.4-0.2,0.6l0.5,0.7h-0.5l-0.2-0.3
	C57.4,66.7,57.3,66.8,57.1,66.8z M57.3,66.3l-1-1.4c-0.2,0.2-0.3,0.3-0.4,0.4c-0.1,0.1-0.1,0.2-0.1,0.4c0,0.1,0,0.1,0,0.2
	c0,0,0,0.1,0,0.2c0,0.2,0.1,0.4,0.2,0.6c0.2,0.1,0.3,0.2,0.5,0.2c0,0,0.1,0,0.1,0c0,0,0.1,0,0.1,0c0.1,0,0.2-0.1,0.3-0.1
	C57.1,66.5,57.2,66.4,57.3,66.3L57.3,66.3z M56.4,64.4c0.1-0.1,0.2-0.1,0.2-0.2c0.1-0.1,0.1-0.2,0.2-0.3c0,0,0-0.1,0-0.1
	c0,0,0-0.1,0-0.1c0-0.1,0-0.3-0.1-0.4c-0.1-0.1-0.2-0.1-0.3-0.1c-0.1,0-0.2,0-0.3,0.1c-0.1,0.1-0.1,0.2-0.1,0.3c0,0.1,0,0.2,0.1,0.4
	C56.2,64.1,56.3,64.2,56.4,64.4L56.4,64.4z"/>
<path class="st1" d="M64.8,62.9l1.1,4h-0.4l-0.3-1.3H64l-0.3,1.3h-0.4l1.1-4H64.8z M64.1,65.3h1l-0.6-2L64.1,65.3z"/>
<path class="st1" d="M67.1,65.7h0.3c0,0.3,0.1,0.6,0.3,0.7c0.1,0.2,0.3,0.2,0.5,0.2c0,0,0,0,0.1,0c0,0,0,0,0.1,0
	c0.2,0,0.3-0.1,0.4-0.2c0.1-0.1,0.2-0.3,0.2-0.6v-0.2c0-0.2-0.1-0.3-0.2-0.4c-0.1-0.1-0.3-0.2-0.5-0.2c0,0-0.1,0-0.1,0
	c0,0-0.1,0-0.1,0c-0.2-0.1-0.4-0.2-0.6-0.4c-0.2-0.2-0.3-0.4-0.3-0.8c0,0,0,0,0,0c0,0,0,0,0,0c0,0,0,0,0,0c0,0,0,0,0,0c0,0,0,0,0,0
	c0,0,0,0,0,0c0-0.3,0.1-0.5,0.3-0.6c0.2-0.1,0.4-0.2,0.6-0.2c0,0,0,0,0,0c0,0,0,0,0,0c0,0,0,0,0.1,0c0,0,0,0,0.1,0
	c0.2,0,0.5,0.1,0.7,0.3c0.2,0.2,0.3,0.4,0.3,0.7l-0.4,0c0-0.2-0.1-0.3-0.2-0.5c-0.1-0.1-0.3-0.2-0.4-0.2c0,0,0,0-0.1,0
	c0,0,0,0-0.1,0c-0.1,0-0.3,0.1-0.4,0.2c-0.1,0.1-0.2,0.3-0.2,0.5c0,0,0,0,0,0c0,0,0,0,0,0c0,0,0,0,0,0c0,0,0,0,0,0
	c0,0.3,0.1,0.4,0.3,0.6c0.2,0.1,0.4,0.2,0.6,0.3c0,0,0,0,0,0c0,0,0,0,0,0c0.2,0.1,0.4,0.2,0.6,0.3c0.2,0.1,0.3,0.4,0.3,0.7v0
	c0,0.4-0.1,0.7-0.3,0.9c-0.2,0.2-0.5,0.3-0.7,0.3c0,0,0,0,0,0s0,0,0,0c0,0,0,0,0,0c0,0,0,0,0,0c-0.3,0-0.5-0.1-0.8-0.3
	C67.2,66.5,67.1,66.2,67.1,65.7C67.1,65.8,67.1,65.8,67.1,65.7C67.1,65.8,67.1,65.8,67.1,65.7C67.1,65.7,67.1,65.7,67.1,65.7
	C67.1,65.7,67.1,65.7,67.1,65.7L67.1,65.7z"/>
<path class="st1" d="M72.2,62.8c0.5,0,0.8,0.2,1,0.6c0.2,0.4,0.2,0.8,0.2,1.5c0,0.1,0,0.2,0,0.4c0,0.1,0,0.3,0,0.4
	c0,0.3-0.1,0.6-0.3,0.9c-0.2,0.3-0.5,0.4-0.9,0.4c-0.4,0-0.7-0.1-0.8-0.4C71.1,66.3,71,66,71,65.6c0-0.1,0-0.3,0-0.4
	c0-0.1,0-0.3,0-0.4c0,0,0,0,0-0.1c0,0,0,0,0-0.1c0,0,0-0.1,0-0.1c0,0,0-0.1,0-0.1c0-0.1,0-0.2,0-0.3c0-0.1,0-0.2,0-0.3
	c0-0.3,0.2-0.5,0.3-0.7C71.5,63,71.8,62.8,72.2,62.8L72.2,62.8z M72.2,63.1c-0.4,0-0.6,0.2-0.7,0.5c-0.1,0.3-0.2,0.7-0.2,1.2
	c0,0.1,0,0.2,0,0.3c0,0.1,0,0.2,0,0.4c0,0.3,0.1,0.5,0.2,0.8c0.1,0.2,0.3,0.3,0.6,0.4c0,0,0,0,0,0c0,0,0,0,0,0
	c0.3,0,0.5-0.1,0.6-0.3c0.1-0.2,0.2-0.5,0.2-0.7c0-0.1,0-0.2,0-0.3c0-0.1,0-0.2,0-0.3v-0.3c0-0.1,0-0.2,0-0.3c0-0.1,0-0.2,0-0.4
	c0-0.2-0.1-0.4-0.2-0.6C72.6,63.3,72.4,63.2,72.2,63.1L72.2,63.1z"/>
<path class="st1" d="M77,66.7c-0.2,0.2-0.5,0.3-0.7,0.4c0,0,0,0-0.1,0c0,0,0,0-0.1,0c-0.3,0-0.6-0.1-0.7-0.4
	c-0.2-0.2-0.3-0.5-0.3-0.8c0-0.2-0.1-0.4-0.1-0.5c0-0.2,0-0.3,0-0.4c0,0,0,0,0-0.1c0,0,0,0,0-0.1c0-0.1,0-0.2,0-0.3
	c0-0.1,0-0.3,0-0.4c0-0.3,0.1-0.6,0.3-0.8c0.2-0.2,0.4-0.4,0.8-0.4c0.4,0,0.6,0.1,0.8,0.3c0.2,0.2,0.3,0.5,0.3,0.9L77,64
	c0-0.3-0.1-0.5-0.2-0.6c-0.1-0.2-0.3-0.2-0.6-0.2c-0.3,0-0.5,0.2-0.6,0.5c-0.1,0.4-0.1,0.8-0.1,1.4c0,0.1,0,0.2,0,0.3
	c0,0.1,0,0.2,0,0.4c0,0.2,0.1,0.5,0.2,0.7c0.1,0.2,0.3,0.3,0.6,0.3c0.2,0,0.4-0.1,0.5-0.3c0.1-0.2,0.2-0.4,0.2-0.6
	c0-0.1,0-0.1,0-0.2c0-0.1,0-0.1,0-0.2l0.4,0C77.4,66.1,77.2,66.4,77,66.7z"/>
<path class="st1" d="M79.6,62.9v4h-0.4v-4H79.6z"/>
<path class="st1" d="M82.6,62.9l1.1,4h-0.4L83,65.6h-1.2l-0.3,1.3h-0.4l1.1-4H82.6z M81.9,65.3h1l-0.6-2L81.9,65.3z"/>
<path class="st1" d="M86.1,62.9c0.6,0,0.9,0.2,1.1,0.5c0.2,0.3,0.3,0.8,0.3,1.5c0,0.7-0.1,1.2-0.3,1.5c-0.2,0.4-0.6,0.5-1,0.5l-1,0
	v-4H86.1z M85.6,66.5h0.6c0.3,0,0.5-0.1,0.7-0.4c0.2-0.3,0.2-0.6,0.2-1.1c0,0,0,0,0-0.1c0,0,0-0.1,0-0.1c0,0,0,0,0,0c0,0,0,0,0,0
	c0,0,0,0,0-0.1c0,0,0,0,0-0.1c0-0.4-0.1-0.8-0.2-1c-0.1-0.3-0.4-0.4-0.9-0.4h-0.5V66.5z"/>
<path class="st1" d="M90.4,62.8c0.5,0,0.8,0.2,1,0.6c0.2,0.4,0.2,0.8,0.2,1.5c0,0.1,0,0.2,0,0.4c0,0.1,0,0.3,0,0.4
	c0,0.3-0.1,0.6-0.3,0.9C91,66.8,90.7,67,90.3,67c-0.4,0-0.7-0.1-0.8-0.4c-0.2-0.3-0.2-0.6-0.3-0.9c0-0.1,0-0.3,0-0.4
	c0-0.1,0-0.3,0-0.4c0,0,0,0,0-0.1c0,0,0,0,0-0.1c0,0,0-0.1,0-0.1c0,0,0-0.1,0-0.1c0-0.1,0-0.2,0-0.3c0-0.1,0-0.2,0-0.3
	c0-0.3,0.2-0.5,0.3-0.7C89.7,63,90,62.8,90.4,62.8L90.4,62.8z M90.4,63.1c-0.4,0-0.6,0.2-0.7,0.5c-0.1,0.3-0.2,0.7-0.2,1.2
	c0,0.1,0,0.2,0,0.3c0,0.1,0,0.2,0,0.4c0,0.3,0.1,0.5,0.2,0.8c0.1,0.2,0.3,0.3,0.6,0.4c0,0,0,0,0,0c0,0,0,0,0,0
	c0.3,0,0.5-0.1,0.6-0.3c0.1-0.2,0.2-0.5,0.2-0.7c0-0.1,0-0.2,0-0.3c0-0.1,0-0.2,0-0.3v-0.3c0-0.1,0-0.2,0-0.3c0-0.1,0-0.2,0-0.4
	c0-0.2-0.1-0.4-0.2-0.6C90.8,63.3,90.6,63.2,90.4,63.1L90.4,63.1z"/>
<path class="st1" d="M93.1,65.7h0.3c0,0.3,0.1,0.6,0.3,0.7c0.1,0.2,0.3,0.2,0.5,0.2c0,0,0,0,0.1,0c0,0,0,0,0.1,0
	c0.2,0,0.3-0.1,0.4-0.2c0.1-0.1,0.2-0.3,0.2-0.6v-0.2c0-0.2-0.1-0.3-0.2-0.4c-0.1-0.1-0.3-0.2-0.5-0.2c0,0-0.1,0-0.1,0
	c0,0-0.1,0-0.1,0c-0.2-0.1-0.4-0.2-0.6-0.4c-0.2-0.2-0.3-0.4-0.3-0.8c0,0,0,0,0,0c0,0,0,0,0,0c0,0,0,0,0,0c0,0,0,0,0,0c0,0,0,0,0,0
	c0,0,0,0,0,0c0-0.3,0.1-0.5,0.3-0.6c0.2-0.1,0.4-0.2,0.6-0.2c0,0,0,0,0,0c0,0,0,0,0,0c0,0,0,0,0.1,0c0,0,0,0,0.1,0
	c0.2,0,0.5,0.1,0.7,0.3c0.2,0.2,0.3,0.4,0.3,0.7l-0.4,0c0-0.2-0.1-0.3-0.2-0.5c-0.1-0.1-0.3-0.2-0.4-0.2c0,0,0,0-0.1,0
	c0,0,0,0-0.1,0c-0.1,0-0.3,0.1-0.4,0.2c-0.1,0.1-0.2,0.3-0.2,0.5c0,0,0,0,0,0c0,0,0,0,0,0c0,0,0,0,0,0c0,0,0,0,0,0
	c0,0.3,0.1,0.4,0.3,0.6c0.2,0.1,0.4,0.2,0.6,0.3c0,0,0,0,0,0c0,0,0,0,0,0c0.2,0.1,0.4,0.2,0.6,0.3c0.2,0.1,0.3,0.4,0.3,0.7v0
	c0,0.4-0.1,0.7-0.3,0.9c-0.2,0.2-0.5,0.3-0.7,0.3c0,0,0,0,0,0c0,0,0,0,0,0c0,0,0,0,0,0s0,0,0,0c-0.3,0-0.5-0.1-0.8-0.3
	C93.2,66.5,93.1,66.2,93.1,65.7C93.1,65.8,93.1,65.8,93.1,65.7C93.1,65.8,93.1,65.8,93.1,65.7C93.1,65.7,93.1,65.7,93.1,65.7
	C93.1,65.7,93.1,65.7,93.1,65.7L93.1,65.7z"/>
<circle class="st2" cx="23.2" cy="65.1" r="0.6"/>
<circle class="st2" cx="52.7" cy="65.1" r="0.6"/>
<circle class="st2" cx="60.7" cy="65.1" r="0.6"/>
<path class="st2" d="M22.4,42.9c0,6.6-3,9.2-9,9.2c-6.1,0-8.8-3.4-8.8-8.7v-2h6.7v1.4c0,1.9,0,3.6,2,3.6c1.9,0,1.8-2.3,1.8-3.4V27.5
	h7.4V42.9z"/>
<path class="st2" d="M30.4,27.5h7.2l8.8,24h-7.7l-1-3.4h-7.6L29,51.5h-7.4L30.4,27.5z M36.3,42.9l-2.2-7.4H34l-2.3,7.4H36.3z"/>
<g>
	<g>
		<defs>
			<path id="SVGID_1_" d="M79.3,27.5h7.2l8.8,24h-7.7l-1-3.4H79l-3,9.4h-7.4L79.3,27.5z M85.2,42.9L83,35.5h-0.1l-2.3,7.4H85.2z"/>
		</defs>
		<clipPath id="SVGID_2_">
			<use xlink:href="#SVGID_1_"  style="overflow:visible;"/>
		</clipPath>
		<rect x="80.6" y="35.5" class="st3" width="4.5" height="7.4"/>
		<polygon class="st3" points="95.3,54.9 93.4,57.5 89.1,57.5 68.6,42.2 68.6,38.6 76.9,27.5 95.3,27.5 		"/>
		<polygon class="st3" points="88.9,57.5 68.6,42.4 68.6,42.2 89.1,57.5 		"/>
		<polygon class="st4" points="88.7,57.5 68.6,42.5 68.6,42.4 88.9,57.5 		"/>
		<polygon class="st5" points="88.4,57.5 68.6,42.7 68.6,42.5 88.7,57.5 		"/>
		<polygon class="st6" points="88.2,57.5 68.6,42.8 68.6,42.7 88.4,57.5 		"/>
		<polygon class="st7" points="88,57.5 68.6,43 68.6,42.8 88.2,57.5 		"/>
		<polygon class="st8" points="87.8,57.5 68.6,43.2 68.6,43 88,57.5 		"/>
		<polygon class="st9" points="87.6,57.5 68.6,43.3 68.6,43.2 87.8,57.5 		"/>
		<polygon class="st10" points="87.3,57.5 68.6,43.5 68.6,43.3 87.6,57.5 		"/>
		<polygon class="st11" points="87.1,57.5 68.6,43.7 68.6,43.5 87.3,57.5 		"/>
		<polygon class="st12" points="86.9,57.5 68.6,43.8 68.6,43.7 87.1,57.5 		"/>
		<polygon class="st13" points="86.7,57.5 68.6,44 68.6,43.8 86.9,57.5 		"/>
		<polygon class="st14" points="86.5,57.5 68.6,44.1 68.6,44 86.7,57.5 		"/>
		<polygon class="st15" points="86.3,57.5 68.6,44.3 68.6,44.1 86.5,57.5 		"/>
		<polygon class="st16" points="86,57.5 68.6,44.5 68.6,44.3 86.3,57.5 		"/>
		<polygon class="st17" points="85.8,57.5 68.6,44.6 68.6,44.5 86,57.5 		"/>
		<polygon class="st18" points="85.6,57.5 68.6,44.8 68.6,44.6 85.8,57.5 		"/>
		<polygon class="st19" points="85.4,57.5 68.6,45 68.6,44.8 85.6,57.5 		"/>
		<polygon class="st20" points="85.2,57.5 68.6,45.1 68.6,45 85.4,57.5 		"/>
		<polygon class="st21" points="84.9,57.5 68.6,45.3 68.6,45.1 85.2,57.5 		"/>
		<polygon class="st22" points="84.7,57.5 68.6,45.4 68.6,45.3 84.9,57.5 		"/>
		<polygon class="st23" points="84.5,57.5 68.6,45.6 68.6,45.4 84.7,57.5 		"/>
		<polygon class="st24" points="84.3,57.5 68.6,45.8 68.6,45.6 84.5,57.5 		"/>
		<polygon class="st25" points="84.1,57.5 68.6,45.9 68.6,45.8 84.3,57.5 		"/>
		<polygon class="st26" points="83.9,57.5 68.6,46.1 68.6,45.9 84.1,57.5 		"/>
		<polygon class="st27" points="83.6,57.5 68.6,46.3 68.6,46.1 83.9,57.5 		"/>
		<polygon class="st28" points="83.4,57.5 68.6,46.4 68.6,46.3 83.6,57.5 		"/>
		<polygon class="st29" points="83.2,57.5 68.6,46.6 68.6,46.4 83.4,57.5 		"/>
		<polygon class="st30" points="83,57.5 68.6,46.7 68.6,46.6 83.2,57.5 		"/>
		<polygon class="st31" points="82.8,57.5 68.6,46.9 68.6,46.7 83,57.5 		"/>
		<polygon class="st32" points="82.5,57.5 68.6,47.1 68.6,46.9 82.8,57.5 		"/>
		<polygon class="st33" points="82.3,57.5 68.6,47.2 68.6,47.1 82.5,57.5 		"/>
		<polygon class="st34" points="82.1,57.5 68.6,47.4 68.6,47.2 82.3,57.5 		"/>
		<polygon class="st35" points="81.9,57.5 68.6,47.6 68.6,47.4 82.1,57.5 		"/>
		<polygon class="st36" points="81.7,57.5 68.6,47.7 68.6,47.6 81.9,57.5 		"/>
		<polygon class="st37" points="81.5,57.5 68.6,47.9 68.6,47.7 81.7,57.5 		"/>
		<polygon class="st38" points="81.2,57.5 68.6,48 68.6,47.9 81.5,57.5 		"/>
		<polygon class="st39" points="81,57.5 68.6,48.2 68.6,48 81.2,57.5 		"/>
		<polygon class="st40" points="80.8,57.5 68.6,48.4 68.6,48.2 81,57.5 		"/>
		<polygon class="st41" points="80.6,57.5 68.6,48.5 68.6,48.4 80.8,57.5 		"/>
		<polygon class="st42" points="80.4,57.5 68.6,48.7 68.6,48.5 80.6,57.5 		"/>
		<polygon class="st43" points="80.1,57.5 68.6,48.9 68.6,48.7 80.4,57.5 		"/>
		<polygon class="st44" points="79.9,57.5 68.6,49 68.6,48.9 80.1,57.5 		"/>
		<polygon class="st45" points="79.7,57.5 68.6,49.2 68.6,49 79.9,57.5 		"/>
		<polygon class="st46" points="79.5,57.5 68.6,49.3 68.6,49.2 79.7,57.5 		"/>
		<polygon class="st47" points="79.3,57.5 68.6,49.5 68.6,49.3 79.5,57.5 		"/>
		<polygon class="st48" points="79.1,57.5 68.6,49.7 68.6,49.5 79.3,57.5 		"/>
		<polygon class="st49" points="78.8,57.5 68.6,49.8 68.6,49.7 79.1,57.5 		"/>
		<polygon class="st50" points="78.6,57.5 68.6,50 68.6,49.8 78.8,57.5 		"/>
		<polygon class="st51" points="78.4,57.5 68.6,50.1 68.6,50 78.6,57.5 		"/>
		<polygon class="st52" points="78.2,57.5 68.6,50.3 68.6,50.1 78.4,57.5 		"/>
		<polygon class="st53" points="78,57.5 68.6,50.5 68.6,50.3 78.2,57.5 		"/>
		<polygon class="st54" points="77.7,57.5 68.6,50.6 68.6,50.5 78,57.5 		"/>
		<polygon class="st55" points="77.5,57.5 68.6,50.8 68.6,50.6 77.7,57.5 		"/>
		<polygon class="st56" points="77.3,57.5 68.6,51 68.6,50.8 77.5,57.5 		"/>
		<polygon class="st57" points="77.1,57.5 68.6,51.1 68.6,51 77.3,57.5 		"/>
		<polygon class="st58" points="76.9,57.5 68.6,51.3 68.6,51.1 77.1,57.5 		"/>
		<polygon class="st59" points="76.7,57.5 68.6,51.4 68.6,51.3 76.9,57.5 		"/>
		<polygon class="st60" points="76.4,57.5 68.6,51.6 68.6,51.4 76.7,57.5 		"/>
		<polygon class="st61" points="76.2,57.5 68.6,51.8 68.6,51.6 76.4,57.5 		"/>
		<polygon class="st62" points="76,57.5 68.6,51.9 68.6,51.8 76.2,57.5 		"/>
		<polygon class="st63" points="75.8,57.5 68.6,52.1 68.6,51.9 76,57.5 		"/>
		<polygon class="st64" points="75.6,57.5 68.6,52.3 68.6,52.1 75.8,57.5 		"/>
		<polygon class="st65" points="75.3,57.5 68.6,52.4 68.6,52.3 75.6,57.5 		"/>
		<polygon class="st66" points="75.1,57.5 68.6,52.6 68.6,52.4 75.3,57.5 		"/>
		<polygon class="st67" points="74.9,57.5 68.6,52.7 68.6,52.6 75.1,57.5 		"/>
		<polygon class="st68" points="74.7,57.5 68.6,52.9 68.6,52.7 74.9,57.5 		"/>
		<polygon class="st69" points="74.5,57.5 68.6,53.1 68.6,52.9 74.7,57.5 		"/>
		<polygon class="st70" points="74.3,57.5 68.6,53.2 68.6,53.1 74.5,57.5 		"/>
		<polygon class="st71" points="74,57.5 68.6,53.4 68.6,53.2 74.3,57.5 		"/>
		<polygon class="st72" points="73.8,57.5 68.6,53.6 68.6,53.4 74,57.5 		"/>
		<polygon class="st73" points="73.6,57.5 68.6,53.7 68.6,53.6 73.8,57.5 		"/>
		<polygon class="st74" points="73.4,57.5 68.6,53.9 68.6,53.7 73.6,57.5 		"/>
		<polygon class="st75" points="73.2,57.5 68.6,54 68.6,53.9 73.4,57.5 		"/>
		<polygon class="st76" points="72.9,57.5 68.6,54.2 68.6,54 73.2,57.5 		"/>
		<polygon class="st77" points="72.7,57.5 68.6,54.4 68.6,54.2 72.9,57.5 		"/>
		<polygon class="st78" points="72.5,57.5 68.6,54.5 68.6,54.4 72.7,57.5 		"/>
		<polygon class="st79" points="72.3,57.5 68.6,54.7 68.6,54.5 72.5,57.5 		"/>
		<polygon class="st80" points="72.1,57.5 68.6,54.9 68.6,54.7 72.3,57.5 		"/>
		<polygon class="st81" points="71.9,57.5 68.6,55 68.6,54.9 72.1,57.5 		"/>
		<polygon class="st82" points="71.6,57.5 68.6,55.2 68.6,55 71.9,57.5 		"/>
		<polygon class="st83" points="71.4,57.5 68.6,55.3 68.6,55.2 71.6,57.5 		"/>
		<polygon class="st84" points="71.2,57.5 68.6,55.5 68.6,55.3 71.4,57.5 		"/>
		<polygon class="st84" points="68.6,55.5 71.2,57.5 68.6,57.5 		"/>
	</g>
</g>
<path class="st2" d="M61,49.8c-2.2,1.7-4.2,2.3-6.9,2.3c-4.6,0-8.2-3.1-8.2-7.8c0-3.2,2.7-5.4,5.4-6.8c-1.1-1.2-1.9-2.7-1.9-4.4
	c0-3.8,3.6-6.2,7.1-6.2c4.5,0,7.7,2,7.7,6.2c0,2.7-2.1,5-4.4,6.2l1.9,2.3L76,57.5h-8.2L61,49.8z M54.6,41.9c-1,0.5-2.3,1.4-2.3,2.6
	c0,1.3,1.1,2.3,2.3,2.3c1.1,0,2-0.7,2.8-1.4L54.6,41.9z M56.6,35.5c0.9-0.4,1.9-1.4,1.9-2.5c0-0.9-0.7-1.6-1.6-1.6
	c-0.8,0-1.8,0.6-1.8,1.7C55.1,33.9,56,34.8,56.6,35.5"/>
<g>
	<g>
		<defs>
			<rect id="SVGID_3_" y="59.7" width="100" height="0.5"/>
		</defs>
		<clipPath id="SVGID_4_">
			<use xlink:href="#SVGID_3_"  style="overflow:visible;"/>
		</clipPath>
		<path class="st85" d="M0,59.7v0.5V59.7z"/>
		<rect y="59.7" class="st85" width="0.4" height="0.5"/>
		<rect x="0.4" y="59.7" class="st86" width="0.4" height="0.5"/>
		<rect x="0.9" y="59.7" class="st87" width="0.4" height="0.5"/>
		<rect x="1.3" y="59.7" class="st88" width="0.4" height="0.5"/>
		<rect x="1.8" y="59.7" class="st89" width="0.4" height="0.5"/>
		<rect x="2.2" y="59.7" class="st90" width="0.4" height="0.5"/>
		<rect x="2.7" y="59.7" class="st91" width="0.4" height="0.5"/>
		<rect x="3.1" y="59.7" class="st92" width="0.4" height="0.5"/>
		<rect x="3.5" y="59.7" class="st93" width="0.4" height="0.5"/>
		<rect x="4" y="59.7" class="st94" width="0.4" height="0.5"/>
		<rect x="4.4" y="59.7" class="st95" width="0.4" height="0.5"/>
		<rect x="4.9" y="59.7" class="st96" width="0.4" height="0.5"/>
		<rect x="5.3" y="59.7" class="st97" width="0.4" height="0.5"/>
		<rect x="5.8" y="59.7" class="st98" width="0.4" height="0.5"/>
		<rect x="6.2" y="59.7" class="st99" width="0.4" height="0.5"/>
		<rect x="6.7" y="59.7" class="st100" width="0.4" height="0.5"/>
		<rect x="7.1" y="59.7" class="st101" width="0.4" height="0.5"/>
		<rect x="7.5" y="59.7" class="st102" width="0.4" height="0.5"/>
		<rect x="8" y="59.7" class="st103" width="0.4" height="0.5"/>
		<rect x="8.4" y="59.7" class="st104" width="0.4" height="0.5"/>
		<rect x="8.9" y="59.7" class="st105" width="0.4" height="0.5"/>
		<rect x="9.3" y="59.7" class="st106" width="0.4" height="0.5"/>
		<rect x="9.8" y="59.7" class="st107" width="0.4" height="0.5"/>
		<rect x="10.2" y="59.7" class="st108" width="0.4" height="0.5"/>
		<rect x="10.6" y="59.7" class="st109" width="0.4" height="0.5"/>
		<rect x="11.1" y="59.7" class="st110" width="0.4" height="0.5"/>
		<rect x="11.5" y="59.7" class="st111" width="0.4" height="0.5"/>
		<rect x="12" y="59.7" class="st112" width="0.4" height="0.5"/>
		<rect x="12.4" y="59.7" class="st113" width="0.4" height="0.5"/>
		<rect x="12.9" y="59.7" class="st114" width="0.4" height="0.5"/>
		<rect x="13.3" y="59.7" class="st115" width="0.4" height="0.5"/>
		<rect x="13.8" y="59.7" class="st116" width="0.4" height="0.5"/>
		<rect x="14.2" y="59.7" class="st117" width="0.4" height="0.5"/>
		<rect x="14.6" y="59.7" class="st118" width="0.4" height="0.5"/>
		<rect x="15.1" y="59.7" class="st119" width="0.4" height="0.5"/>
		<rect x="15.5" y="59.7" class="st120" width="0.4" height="0.5"/>
		<rect x="16" y="59.7" class="st121" width="0.4" height="0.5"/>
		<rect x="16.4" y="59.7" class="st122" width="0.4" height="0.5"/>
		<rect x="16.9" y="59.7" class="st123" width="0.4" height="0.5"/>
		<rect x="17.3" y="59.7" class="st124" width="0.4" height="0.5"/>
		<rect x="17.7" y="59.7" class="st125" width="0.4" height="0.5"/>
		<rect x="18.2" y="59.7" class="st126" width="0.4" height="0.5"/>
		<rect x="18.6" y="59.7" class="st127" width="0.4" height="0.5"/>
		<rect x="19.1" y="59.7" class="st128" width="0.4" height="0.5"/>
		<rect x="19.5" y="59.7" class="st129" width="0.4" height="0.5"/>
		<rect x="20" y="59.7" class="st130" width="0.4" height="0.5"/>
		<rect x="20.4" y="59.7" class="st131" width="0.4" height="0.5"/>
		<rect x="20.9" y="59.7" class="st132" width="0.4" height="0.5"/>
		<rect x="21.3" y="59.7" class="st133" width="0.4" height="0.5"/>
		<rect x="21.7" y="59.7" class="st134" width="0.4" height="0.5"/>
		<rect x="22.2" y="59.7" class="st135" width="0.4" height="0.5"/>
		<rect x="22.6" y="59.7" class="st136" width="0.4" height="0.5"/>
		<rect x="23.1" y="59.7" class="st137" width="0.4" height="0.5"/>
		<rect x="23.5" y="59.7" class="st138" width="0.4" height="0.5"/>
		<rect x="24" y="59.7" class="st139" width="0.4" height="0.5"/>
		<rect x="24.4" y="59.7" class="st140" width="0.4" height="0.5"/>
		<rect x="24.8" y="59.7" class="st141" width="0.4" height="0.5"/>
		<rect x="25.3" y="59.7" class="st142" width="0.4" height="0.5"/>
		<rect x="25.7" y="59.7" class="st143" width="0.4" height="0.5"/>
		<rect x="26.2" y="59.7" class="st144" width="0.4" height="0.5"/>
		<rect x="26.6" y="59.7" class="st145" width="0.4" height="0.5"/>
		<rect x="27.1" y="59.7" class="st146" width="0.4" height="0.5"/>
		<rect x="27.5" y="59.7" class="st147" width="0.4" height="0.5"/>
		<rect x="28" y="59.7" class="st148" width="0.4" height="0.5"/>
		<rect x="28.4" y="59.7" class="st149" width="0.4" height="0.5"/>
		<rect x="28.8" y="59.7" class="st150" width="0.4" height="0.5"/>
		<rect x="29.3" y="59.7" class="st151" width="0.4" height="0.5"/>
		<rect x="29.7" y="59.7" class="st152" width="0.4" height="0.5"/>
		<rect x="30.2" y="59.7" class="st153" width="0.4" height="0.5"/>
		<rect x="30.6" y="59.7" class="st154" width="0.4" height="0.5"/>
		<rect x="31.1" y="59.7" class="st155" width="0.4" height="0.5"/>
		<rect x="31.5" y="59.7" class="st156" width="0.4" height="0.5"/>
		<rect x="31.9" y="59.7" class="st157" width="0.4" height="0.5"/>
		<rect x="32.4" y="59.7" class="st157" width="0.4" height="0.5"/>
		<rect x="32.8" y="59.7" class="st158" width="0.4" height="0.5"/>
		<rect x="33.3" y="59.7" class="st158" width="0.4" height="0.5"/>
		<rect x="33.7" y="59.7" class="st159" width="0.4" height="0.5"/>
		<rect x="34.2" y="59.7" class="st160" width="0.4" height="0.5"/>
		<rect x="34.6" y="59.7" class="st160" width="0.4" height="0.5"/>
		<rect x="35.1" y="59.7" class="st161" width="0.4" height="0.5"/>
		<rect x="35.5" y="59.7" class="st162" width="0.4" height="0.5"/>
		<rect x="35.9" y="59.7" class="st162" width="0.4" height="0.5"/>
		<rect x="36.4" y="59.7" class="st162" width="0.4" height="0.5"/>
		<rect x="36.8" y="59.7" class="st163" width="0.4" height="0.5"/>
		<rect x="37.3" y="59.7" class="st164" width="0.4" height="0.5"/>
		<rect x="37.7" y="59.7" class="st164" width="0.4" height="0.5"/>
		<rect x="38.2" y="59.7" class="st164" width="0.4" height="0.5"/>
		<rect x="38.6" y="59.7" class="st164" width="0.4" height="0.5"/>
		<rect x="39" y="59.7" class="st165" width="0.4" height="0.5"/>
		<rect x="39.5" y="59.7" class="st165" width="0.4" height="0.5"/>
		<rect x="39.9" y="59.7" class="st165" width="0.4" height="0.5"/>
		<rect x="40.4" y="59.7" class="st165" width="0.4" height="0.5"/>
		<rect x="40.8" y="59.7" class="st165" width="0.4" height="0.5"/>
		<rect x="41.3" y="59.7" class="st165" width="0.4" height="0.5"/>
		<rect x="41.7" y="59.7" class="st165" width="0.4" height="0.5"/>
		<rect x="42.2" y="59.7" class="st165" width="0.4" height="0.5"/>
		<rect x="42.6" y="59.7" class="st166" width="0.4" height="0.5"/>
		<rect x="43" y="59.7" class="st166" width="0.4" height="0.5"/>
		<rect x="43.5" y="59.7" class="st166" width="0.4" height="0.5"/>
		<rect x="43.9" y="59.7" class="st166" width="0.4" height="0.5"/>
		<rect x="44.4" y="59.7" class="st166" width="0.4" height="0.5"/>
		<rect x="44.8" y="59.7" class="st166" width="0.4" height="0.5"/>
		<rect x="45.3" y="59.7" class="st166" width="0.4" height="0.5"/>
		<rect x="45.7" y="59.7" class="st166" width="0.4" height="0.5"/>
		<rect x="46.1" y="59.7" class="st166" width="0.4" height="0.5"/>
		<rect x="46.6" y="59.7" class="st166" width="0.4" height="0.5"/>
		<rect x="47" y="59.7" class="st166" width="0.4" height="0.5"/>
		<rect x="47.5" y="59.7" class="st166" width="0.4" height="0.5"/>
		<rect x="47.9" y="59.7" class="st166" width="0.4" height="0.5"/>
		<rect x="48.4" y="59.7" class="st166" width="0.4" height="0.5"/>
		<rect x="48.8" y="59.7" class="st166" width="0.4" height="0.5"/>
		<rect x="49.2" y="59.7" class="st166" width="0.4" height="0.5"/>
		<rect x="49.7" y="59.7" class="st166" width="0.4" height="0.5"/>
		<rect x="50.1" y="59.7" class="st166" width="0.4" height="0.5"/>
		<rect x="50.6" y="59.7" class="st166" width="0.4" height="0.5"/>
		<rect x="51" y="59.7" class="st166" width="0.4" height="0.5"/>
		<rect x="51.5" y="59.7" class="st166" width="0.4" height="0.5"/>
		<rect x="51.9" y="59.7" class="st166" width="0.4" height="0.5"/>
		<rect x="52.4" y="59.7" class="st166" width="0.4" height="0.5"/>
		<rect x="52.8" y="59.7" class="st166" width="0.4" height="0.5"/>
		<rect x="53.3" y="59.7" class="st166" width="0.4" height="0.5"/>
		<rect x="53.7" y="59.7" class="st166" width="0.4" height="0.5"/>
		<rect x="54.2" y="59.7" class="st165" width="0.4" height="0.5"/>
		<rect x="54.6" y="59.7" class="st165" width="0.4" height="0.5"/>
		<rect x="55.1" y="59.7" class="st165" width="0.4" height="0.5"/>
		<rect x="55.5" y="59.7" class="st165" width="0.4" height="0.5"/>
		<rect x="56" y="59.7" class="st165" width="0.4" height="0.5"/>
		<rect x="56.4" y="59.7" class="st165" width="0.4" height="0.5"/>
		<rect x="56.9" y="59.7" class="st167" width="0.4" height="0.5"/>
		<rect x="57.3" y="59.7" class="st164" width="0.4" height="0.5"/>
		<rect x="57.8" y="59.7" class="st164" width="0.4" height="0.5"/>
		<rect x="58.2" y="59.7" class="st164" width="0.4" height="0.5"/>
		<rect x="58.7" y="59.7" class="st164" width="0.4" height="0.5"/>
		<rect x="59.1" y="59.7" class="st162" width="0.4" height="0.5"/>
		<rect x="59.6" y="59.7" class="st162" width="0.4" height="0.5"/>
		<rect x="60" y="59.7" class="st162" width="0.4" height="0.5"/>
		<rect x="60.5" y="59.7" class="st160" width="0.4" height="0.5"/>
		<rect x="60.9" y="59.7" class="st160" width="0.4" height="0.5"/>
		<rect x="61.4" y="59.7" class="st160" width="0.4" height="0.5"/>
		<rect x="61.8" y="59.7" class="st158" width="0.4" height="0.5"/>
		<rect x="62.3" y="59.7" class="st158" width="0.4" height="0.5"/>
		<rect x="62.7" y="59.7" class="st168" width="0.4" height="0.5"/>
		<rect x="63.2" y="59.7" class="st157" width="0.4" height="0.5"/>
		<rect x="63.6" y="59.7" class="st169" width="0.4" height="0.5"/>
		<rect x="64.1" y="59.7" class="st155" width="0.4" height="0.5"/>
		<rect x="64.5" y="59.7" class="st170" width="0.4" height="0.5"/>
		<rect x="65" y="59.7" class="st153" width="0.4" height="0.5"/>
		<rect x="65.4" y="59.7" class="st171" width="0.4" height="0.5"/>
		<rect x="65.9" y="59.7" class="st151" width="0.4" height="0.5"/>
		<rect x="66.3" y="59.7" class="st150" width="0.4" height="0.5"/>
		<rect x="66.8" y="59.7" class="st149" width="0.4" height="0.5"/>
		<rect x="67.2" y="59.7" class="st148" width="0.4" height="0.5"/>
		<rect x="67.7" y="59.7" class="st172" width="0.4" height="0.5"/>
		<rect x="68.1" y="59.7" class="st146" width="0.4" height="0.5"/>
		<rect x="68.6" y="59.7" class="st173" width="0.4" height="0.5"/>
		<rect x="69" y="59.7" class="st174" width="0.4" height="0.5"/>
		<rect x="69.5" y="59.7" class="st175" width="0.4" height="0.5"/>
		<rect x="69.9" y="59.7" class="st176" width="0.4" height="0.5"/>
		<rect x="70.4" y="59.7" class="st141" width="0.4" height="0.5"/>
		<rect x="70.8" y="59.7" class="st177" width="0.4" height="0.5"/>
		<rect x="71.3" y="59.7" class="st178" width="0.4" height="0.5"/>
		<rect x="71.7" y="59.7" class="st139" width="0.4" height="0.5"/>
		<rect x="72.2" y="59.7" class="st179" width="0.4" height="0.5"/>
		<rect x="72.6" y="59.7" class="st180" width="0.4" height="0.5"/>
		<rect x="73" y="59.7" class="st136" width="0.4" height="0.5"/>
		<rect x="73.5" y="59.7" class="st181" width="0.4" height="0.5"/>
		<rect x="73.9" y="59.7" class="st182" width="0.4" height="0.5"/>
		<rect x="74.4" y="59.7" class="st183" width="0.4" height="0.5"/>
		<rect x="74.8" y="59.7" class="st132" width="0.4" height="0.5"/>
		<rect x="75.3" y="59.7" class="st131" width="0.4" height="0.5"/>
		<rect x="75.7" y="59.7" class="st184" width="0.4" height="0.5"/>
		<rect x="76.2" y="59.7" class="st185" width="0.4" height="0.5"/>
		<rect x="76.6" y="59.7" class="st186" width="0.4" height="0.5"/>
		<rect x="77.1" y="59.7" class="st187" width="0.4" height="0.5"/>
		<rect x="77.5" y="59.7" class="st188" width="0.4" height="0.5"/>
		<rect x="78" y="59.7" class="st189" width="0.4" height="0.5"/>
		<rect x="78.4" y="59.7" class="st190" width="0.4" height="0.5"/>
		<rect x="78.9" y="59.7" class="st191" width="0.4" height="0.5"/>
		<rect x="79.3" y="59.7" class="st123" width="0.4" height="0.5"/>
		<rect x="79.8" y="59.7" class="st122" width="0.4" height="0.5"/>
		<rect x="80.2" y="59.7" class="st121" width="0.4" height="0.5"/>
		<rect x="80.7" y="59.7" class="st192" width="0.4" height="0.5"/>
		<rect x="81.1" y="59.7" class="st193" width="0.4" height="0.5"/>
		<rect x="81.6" y="59.7" class="st194" width="0.4" height="0.5"/>
		<rect x="82" y="59.7" class="st195" width="0.4" height="0.5"/>
		<rect x="82.5" y="59.7" class="st117" width="0.4" height="0.5"/>
		<rect x="82.9" y="59.7" class="st196" width="0.4" height="0.5"/>
		<rect x="83.4" y="59.7" class="st115" width="0.4" height="0.5"/>
		<rect x="83.8" y="59.7" class="st197" width="0.4" height="0.5"/>
		<rect x="84.3" y="59.7" class="st113" width="0.4" height="0.5"/>
		<rect x="84.7" y="59.7" class="st198" width="0.4" height="0.5"/>
		<rect x="85.2" y="59.7" class="st199" width="0.4" height="0.5"/>
		<rect x="85.6" y="59.7" class="st200" width="0.4" height="0.5"/>
		<rect x="86.1" y="59.7" class="st201" width="0.4" height="0.5"/>
		<rect x="86.5" y="59.7" class="st109" width="0.4" height="0.5"/>
		<rect x="87" y="59.7" class="st108" width="0.4" height="0.5"/>
		<rect x="87.4" y="59.7" class="st202" width="0.4" height="0.5"/>
		<rect x="87.9" y="59.7" class="st203" width="0.4" height="0.5"/>
		<rect x="88.3" y="59.7" class="st204" width="0.4" height="0.5"/>
		<rect x="88.8" y="59.7" class="st105" width="0.4" height="0.5"/>
		<rect x="89.2" y="59.7" class="st104" width="0.4" height="0.5"/>
		<rect x="89.7" y="59.7" class="st205" width="0.4" height="0.5"/>
		<rect x="90.1" y="59.7" class="st206" width="0.4" height="0.5"/>
		<rect x="90.6" y="59.7" class="st207" width="0.4" height="0.5"/>
		<rect x="91" y="59.7" class="st208" width="0.4" height="0.5"/>
		<rect x="91.5" y="59.7" class="st209" width="0.4" height="0.5"/>
		<rect x="91.9" y="59.7" class="st99" width="0.4" height="0.5"/>
		<rect x="92.4" y="59.7" class="st98" width="0.4" height="0.5"/>
		<rect x="92.8" y="59.7" class="st210" width="0.4" height="0.5"/>
		<rect x="93.3" y="59.7" class="st211" width="0.4" height="0.5"/>
		<rect x="93.7" y="59.7" class="st212" width="0.4" height="0.5"/>
		<rect x="94.2" y="59.7" class="st213" width="0.4" height="0.5"/>
		<rect x="94.6" y="59.7" class="st94" width="0.4" height="0.5"/>
		<rect x="95.1" y="59.7" class="st93" width="0.4" height="0.5"/>
		<rect x="95.5" y="59.7" class="st214" width="0.4" height="0.5"/>
		<rect x="96" y="59.7" class="st215" width="0.4" height="0.5"/>
		<rect x="96.4" y="59.7" class="st216" width="0.4" height="0.5"/>
		<rect x="96.9" y="59.7" class="st217" width="0.4" height="0.5"/>
		<rect x="97.3" y="59.7" class="st89" width="0.4" height="0.5"/>
		<rect x="97.8" y="59.7" class="st218" width="0.4" height="0.5"/>
		<rect x="98.2" y="59.7" class="st219" width="0.4" height="0.5"/>
		<rect x="98.7" y="59.7" class="st220" width="0.4" height="0.5"/>
		<rect x="99.1" y="59.7" class="st221" width="0.4" height="0.5"/>
		<rect x="99.6" y="59.7" class="st85" width="0.4" height="0.5"/>
		<path class="st85" d="M100,60.2v-0.5V60.2z"/>
	</g>
</g>
</svg>
