<?xml version="1.0" encoding="utf-8"?>
<!-- Generator: Adobe Illustrator 20.1.0, SVG Export Plug-In . SVG Version: 6.00 Build 0)  -->
<svg version="1.1" id="Capa_1" xmlns="http://www.w3.org/2000/svg" xmlns:xlink="http://www.w3.org/1999/xlink" x="0px" y="0px"
	 viewBox="0 0 100 100" style="enable-background:new 0 0 100 100;" xml:space="preserve">
<style type="text/css">
	.st0{fill:#E19736;}
</style>
<g>
	<g>
		<path class="st0" d="M51,1.5c-12.3,0-22.2,9.9-22.2,22.2v16C20.3,41,14,48.4,14,57v24.1c0,9.7,7.9,17.6,17.6,17.6h38.8
			c9.7,0,17.6-7.9,17.6-17.6V57c0-8.6-6.3-16-14.8-17.3v-16C73.2,11.4,63.2,1.5,51,1.5z M30.6,23.7c0-11.2,9.1-20.4,20.4-20.4
			s20.4,9.1,20.4,20.4v15.7c-0.3,0-0.6,0-0.9,0H31.6c-0.3,0-0.6,0-0.9,0V23.7H30.6z M86.1,57v24.1c0,8.7-7,15.7-15.7,15.7H31.6
			c-8.7,0-15.7-7-15.7-15.7V57c0-8.7,7-15.7,15.7-15.7l0,0h38.8C79.1,41.3,86.1,48.3,86.1,57L86.1,57z"/>
		<path class="st0" d="M70.4,99.7H31.6C21.3,99.7,13,91.4,13,81.1V57c0-8.8,6.3-16.4,14.8-18.1V23.7C27.8,10.9,38.2,0.5,51,0.5
			c12.8,0,23.2,10.4,23.2,23.2v15.2C82.7,40.6,89,48.2,89,57v24.1C89,91.4,80.7,99.7,70.4,99.7z M31.6,42.3
			c-8.1,0-14.7,6.6-14.7,14.7v24.1c0,8.1,6.6,14.7,14.7,14.7h38.8c8.1,0,14.7-6.6,14.7-14.7V57c0-8.1-6.6-14.7-14.7-14.7H31.6z
			 M31.7,38.4h38.7V23.7C70.4,13,61.7,4.3,51,4.3c-10.4,0-18.9,8.2-19.4,18.4h0.1V38.4z"/>
	</g>
	<g>
		<path class="st0" d="M51,50.5c-6.1,0-11.1,5-11.1,11.1c0,4.7,3,8.9,7.4,10.5v11.7c0,2,1.7,3.7,3.7,3.7s3.7-1.7,3.7-3.7V72.1
			c5.8-2,8.8-8.4,6.8-14.2C59.9,53.5,55.7,50.5,51,50.5z M53.5,70.5c-0.4,0.1-0.7,0.5-0.7,0.9v12.4c0,1-0.8,1.9-1.8,1.9
			s-1.9-0.8-1.9-1.9V71.4c0-0.4-0.3-0.8-0.7-0.9c-4.9-1.4-7.8-6.5-6.4-11.4s6.5-7.8,11.4-6.4s7.8,6.5,6.4,11.4
			C59,67.2,56.6,69.6,53.5,70.5L53.5,70.5z"/>
		<path class="st0" d="M51,88.5c-2.5,0-4.7-2.2-4.7-4.7v-11c-4.5-1.9-7.4-6.3-7.4-11.2c0-6.7,5.4-12.1,12.1-12.1
			c5.1,0,9.7,3.2,11.4,8.1c2.1,6.1-0.9,12.8-6.7,15.2v11C55.7,86.3,53.5,88.5,51,88.5z M50.9,53.3c-1.4,0-2.8,0.4-4,1.1
			c-1.9,1.1-3.3,2.8-3.9,5c-1.2,4.3,1.3,8.9,5.7,10.2c0.8,0.2,1.4,1,1.4,1.9v12.4c0,0.6,0.5,0.9,0.9,0.9c0.4,0,0.8-0.4,0.8-0.9V71.4
			c0-0.9,0.6-1.6,1.4-1.9c2.8-0.8,4.9-2.9,5.6-5.7c0.6-2.1,0.3-4.3-0.7-6.3c-1.1-1.9-2.8-3.3-5-3.9C52.4,53.5,51.6,53.3,50.9,53.3z"
			/>
	</g>
</g>
</svg>
