<?xml version="1.0" encoding="utf-8"?>
<!-- Generator: Adobe Illustrator 20.1.0, SVG Export Plug-In . SVG Version: 6.00 Build 0)  -->
<svg version="1.1" id="Capa_1" xmlns="http://www.w3.org/2000/svg" xmlns:xlink="http://www.w3.org/1999/xlink" x="0px" y="0px"
	 viewBox="0 0 100 100" style="enable-background:new 0 0 100 100;" xml:space="preserve">
<style type="text/css">
	.st0{fill:none;}
	.st1{fill:#D28D32;}
</style>
<rect x="-95.6" y="-2581.1" class="st0" width="1559.3" height="5139.4"/>
<g>
	<path class="st1" d="M3.2,91C1.5,91,0,89.5,0,87.7V19.5c0-1.2,0.7-2.4,1.8-2.9c4.9-2.5,9.3-4.4,13.3-5.6c8.1-2.4,15.4-2.6,24.2-0.2
		c3.7,1,7.3,2.6,10.7,4.1c3.9-1.9,7.5-3.2,10.9-4.1c4.2-1.1,8-1.7,11.6-1.7c4,0,8.3,0.7,12.6,2c4.2,1.3,8.5,3.1,13,5.5
		c1.2,0.5,1.9,1.7,1.9,3v68c0,0.5-0.2,1-0.3,1.4c0,0.1-0.1,0.2-0.1,0.2c-0.4,0.8-1.1,1.3-2,1.6c-0.8,0.2-1.7,0.1-2.5-0.3
		c-4.2-2.3-8.1-4-11.7-5.1c-7-2.1-13.3-2.2-19.8-0.5c-3.3,0.9-6.8,2.2-10.2,3.8l-0.2,0.1l-1.9,0.9c-0.9,0.4-1.9,0.4-2.8,0
		c0,0-0.1,0-0.1-0.1L46,88.4c-3.3-1.5-6.3-2.6-9.2-3.4c-3-0.8-5.9-1.1-8.8-1.1c-3.5,0-7.2,0.6-10.9,1.7c-3.8,1.1-7.8,2.7-12.2,4.9
		C4.4,90.8,3.9,91,3.2,91z M27.6,12.1c-3.8,0-7.6,0.6-11.6,1.8c-3.9,1.2-8.1,2.9-12.8,5.4c-0.1,0-0.2,0.2-0.2,0.2l0,68.2
		C3,87.9,3.1,88,3.2,88c0.1,0,0.1,0,0.1,0c0.1,0,0.1-0.1,0.2-0.1c4.6-2.3,8.7-4,12.8-5.1c4-1.2,8-1.8,11.8-1.8
		c3.1,0,6.2,0.4,9.5,1.2c3.1,0.8,6.3,1.9,9.8,3.6l2.4,1.2c0.1,0,0.3,0,0.4,0L52,86c3.6-1.7,7.2-3.1,10.8-4c7.1-1.9,14-1.8,21.5,0.5
		c3.8,1.2,7.9,2.9,12.3,5.4c0.1,0.1,0.2,0.1,0.2,0c0,0,0.1,0,0.1-0.1c0-0.1,0.1-0.2,0.1-0.2v-68c0-0.2-0.1-0.2-0.2-0.3
		c0,0-0.1,0-0.1-0.1c-4.4-2.3-8.5-4.1-12.5-5.3c-4-1.2-7.9-1.9-11.7-1.9c-3.4,0-7,0.5-10.9,1.6c0,0,0,0,0,0c-3.4,0.9-7,2.3-11,4.3
		c-0.4,0.2-0.9,0.2-1.3,0c-3.4-1.6-7.1-3.3-10.8-4.3C34.6,12.6,31.1,12.1,27.6,12.1z M61.3,12.3L61.3,12.3L61.3,12.3z M8.7,80.7
		c-0.3,0-0.6-0.1-0.8-0.3c-0.4-0.3-0.7-0.7-0.7-1.2V22.8c0-0.6,0.3-1.1,0.9-1.4c3.6-1.7,6.9-3,9.9-3.9c6-1.8,11.9-2,19.2,0
		c3,0.9,6.3,2.2,9.8,3.9c0.5,0.2,0.9,0.8,0.9,1.4V79c0,0.5-0.2,1-0.7,1.2c-0.4,0.3-0.9,0.3-1.4,0.1c-2.8-1.2-5.4-2-7.8-2.5
		c0,0,0,0,0,0c-3.2-0.7-6.4-1.1-10-1.2c-3.4,0-6.7,0.4-10.2,1.2c-3.1,0.7-5.9,1.6-8.6,2.7C9.1,80.7,8.9,80.7,8.7,80.7z M10.2,23.8
		V77c2.2-0.8,4.5-1.5,7-2.1c3.7-0.9,7.3-1.3,10.9-1.3c3.8,0.1,7.2,0.5,10.6,1.3c2,0.4,4,1.1,6.2,1.9v-53c-3.1-1.4-5.9-2.5-8.5-3.3
		c-6.7-1.8-12.1-1.7-17.6,0C16.2,21.3,13.3,22.3,10.2,23.8z M53.7,80.7c-0.3,0-0.6-0.1-0.8-0.3c-0.4-0.3-0.7-0.7-0.7-1.2V22.8
		c0-0.6,0.3-1.1,0.8-1.3c3.1-1.6,6.3-2.9,9.9-3.9c6-1.8,11.9-2,19.2,0c3,0.9,6.3,2.2,9.8,3.9c0.5,0.2,0.9,0.8,0.9,1.4v56.3
		c0,0.5-0.2,1-0.7,1.2c-0.4,0.3-0.9,0.3-1.4,0.1c-2.6-1.1-5.3-2-8-2.6c0,0,0,0,0,0c-6.6-1.6-13.4-1.6-19.9,0
		c-3.1,0.8-5.9,1.7-8.5,2.7C54.1,80.7,53.9,80.7,53.7,80.7z M55.2,23.8V77c2.1-0.8,4.4-1.5,6.9-2.1c7-1.7,14.3-1.8,21.4,0h0
		c0,0,0,0,0,0c2.2,0.5,4.3,1.2,6.4,2V23.8c-3.1-1.4-5.9-2.5-8.5-3.3c-6.7-1.8-12.1-1.6-17.6,0C60.6,21.4,57.8,22.5,55.2,23.8z"/>
</g>
</svg>
