<?xml version="1.0" encoding="utf-8"?>
<!-- Generator: Adobe Illustrator 20.1.0, SVG Export Plug-In . SVG Version: 6.00 Build 0)  -->
<svg version="1.1" id="Capa_1" xmlns="http://www.w3.org/2000/svg" xmlns:xlink="http://www.w3.org/1999/xlink" x="0px" y="0px"
	 viewBox="0 0 100 100" style="enable-background:new 0 0 100 100;" xml:space="preserve">
<style type="text/css">
	.st0{fill:#E19736;}
</style>
<g>
	<g>
		<path class="st0" d="M1.7,50.9c-0.2,0-0.4-0.1-0.6-0.2c-0.4-0.3-0.6-0.8-0.4-1.2L15,15.3c0.2-0.4,0.7-0.7,1.1-0.6
			c0.5,0.1,0.8,0.5,0.8,1v20c0,0.3-0.1,0.5-0.3,0.7L2.4,50.6C2.2,50.8,2,50.9,1.7,50.9z M14.9,20.7L4.6,45.6l10.3-10.3V20.7z"/>
	</g>
	<g>
		<path class="st0" d="M35.9,16.7h-20c-0.5,0-0.9-0.3-1-0.8c-0.1-0.5,0.2-0.9,0.6-1.1L49.7,0.6c0.4-0.2,0.9,0,1.2,0.4
			c0.3,0.4,0.2,0.9-0.1,1.3L36.6,16.4C36.4,16.6,36.2,16.7,35.9,16.7z M20.9,14.7h14.6L45.8,4.4L20.9,14.7z"/>
	</g>
	<g>
		<path class="st0" d="M49.9,99.5c-0.1,0-0.3,0-0.4-0.1L15.3,85.2c-0.4-0.2-0.7-0.7-0.6-1.1c0.1-0.5,0.5-0.8,1-0.8h20
			c0.3,0,0.5,0.1,0.7,0.3l14.2,14.2c0.3,0.3,0.4,0.9,0.1,1.3C50.5,99.3,50.2,99.5,49.9,99.5z M20.7,85.3l24.9,10.3L35.3,85.3H20.7z"
			/>
	</g>
	<g>
		<path class="st0" d="M15.7,85.3c-0.4,0-0.8-0.2-0.9-0.6L0.6,50.5c-0.2-0.4,0-0.9,0.4-1.2c0.4-0.3,0.9-0.2,1.3,0.1l14.2,14.2
			c0.2,0.2,0.3,0.4,0.3,0.7v20c0,0.5-0.3,0.9-0.8,1C15.8,85.3,15.8,85.3,15.7,85.3z M4.4,54.4l10.3,24.9V64.7L4.4,54.4z"/>
	</g>
	<g>
		<path class="st0" d="M98.5,50.9c-0.3,0-0.5-0.1-0.7-0.3L83.6,36.4c-0.2-0.2-0.3-0.4-0.3-0.7v-20c0-0.5,0.3-0.9,0.8-1
			c0.5-0.1,0.9,0.2,1.1,0.6l14.2,34.2c0.2,0.4,0,0.9-0.4,1.2C98.9,50.8,98.7,50.9,98.5,50.9z M85.3,35.3l10.3,10.3L85.3,20.7V35.3z"
			/>
	</g>
	<g>
		<path class="st0" d="M84.3,16.7h-20c-0.3,0-0.5-0.1-0.7-0.3L49.4,2.2c-0.3-0.3-0.4-0.9-0.1-1.3c0.3-0.4,0.8-0.5,1.2-0.4l34.2,14.2
			c0.4,0.2,0.7,0.7,0.6,1.1C85.2,16.4,84.8,16.7,84.3,16.7z M64.7,14.7h14.6L54.4,4.4L64.7,14.7z"/>
	</g>
	<g>
		<path class="st0" d="M50.1,99.3c-0.3,0-0.6-0.2-0.8-0.4c-0.3-0.4-0.2-0.9,0.1-1.3l14.2-14.2c0.2-0.2,0.4-0.3,0.7-0.3h20
			c0.5,0,0.9,0.3,1,0.8c0.1,0.5-0.2,0.9-0.6,1.1L50.5,99.2C50.4,99.3,50.2,99.3,50.1,99.3z M64.7,85.1L54.4,95.4l24.9-10.3H64.7z"/>
	</g>
	<g>
		<path class="st0" d="M84.3,85.1c-0.1,0-0.1,0-0.2,0c-0.5-0.1-0.8-0.5-0.8-1v-20c0-0.3,0.1-0.5,0.3-0.7l14.2-14.2
			c0.3-0.3,0.9-0.4,1.3-0.1c0.4,0.3,0.6,0.8,0.4,1.2L85.2,84.5C85.1,84.9,84.7,85.1,84.3,85.1z M85.3,64.5v14.6l10.3-24.9L85.3,64.5
			z"/>
	</g>
	<g>
		<path class="st0" d="M15.9,36.7c-0.1,0-0.3,0-0.4-0.1c-0.4-0.2-0.6-0.5-0.6-0.9v-20c0-0.6,0.4-1,1-1h20c0.4,0,0.8,0.2,0.9,0.6
			c0.2,0.4,0.1,0.8-0.2,1.1l-20,20C16.4,36.6,16.2,36.7,15.9,36.7z M16.9,16.7v16.6l16.6-16.6H16.9z"/>
	</g>
	<g>
		<path class="st0" d="M84.3,36.7c-0.3,0-0.5-0.1-0.7-0.3l-20-20c-0.3-0.3-0.4-0.7-0.2-1.1c0.2-0.4,0.5-0.6,0.9-0.6h20
			c0.6,0,1,0.4,1,1v20c0,0.4-0.2,0.8-0.6,0.9C84.6,36.7,84.4,36.7,84.3,36.7z M66.7,16.7l16.6,16.6V16.7H66.7z"/>
	</g>
	<g>
		<path class="st0" d="M84.3,85.1h-20c-0.4,0-0.8-0.2-0.9-0.6c-0.2-0.4-0.1-0.8,0.2-1.1l20-20c0.3-0.3,0.7-0.4,1.1-0.2
			c0.4,0.2,0.6,0.5,0.6,0.9v20C85.3,84.7,84.9,85.1,84.3,85.1z M66.7,83.1h16.6V66.5L66.7,83.1z"/>
	</g>
	<g>
		<path class="st0" d="M35.7,85.3h-20c-0.6,0-1-0.4-1-1v-20c0-0.4,0.2-0.8,0.6-0.9c0.4-0.2,0.8-0.1,1.1,0.2l20,20
			c0.3,0.3,0.4,0.7,0.2,1.1S36.1,85.3,35.7,85.3z M16.7,83.3h16.6L16.7,66.7V83.3z"/>
	</g>
	<g>
		<path class="st0" d="M15.7,65.3c-0.3,0-0.5-0.1-0.7-0.3L0.8,50.8c-0.2-0.2-0.3-0.4-0.3-0.7s0.1-0.5,0.3-0.7L15.2,35
			c0.3-0.3,0.7-0.4,1.1-0.2c0.4,0.2,0.6,0.5,0.6,0.9l-0.2,28.6c0,0.4-0.2,0.8-0.6,0.9C16,65.3,15.8,65.3,15.7,65.3z M2.9,50.1
			l11.8,11.8l0.2-23.8L2.9,50.1z"/>
	</g>
	<g>
		<path class="st0" d="M64.3,16.7H35.9c-0.4,0-0.8-0.2-0.9-0.6c-0.2-0.4-0.1-0.8,0.2-1.1L49.4,0.8c0.4-0.4,1-0.4,1.4,0L65,15
			c0.3,0.3,0.4,0.7,0.2,1.1C65.1,16.5,64.7,16.7,64.3,16.7z M38.3,14.7h23.6L50.1,2.9L38.3,14.7z"/>
	</g>
	<g>
		<path class="st0" d="M84.3,65.1c-0.1,0-0.3,0-0.4-0.1c-0.4-0.2-0.6-0.5-0.6-0.9V35.7c0-0.4,0.2-0.8,0.6-0.9
			c0.4-0.2,0.8-0.1,1.1,0.2l14.2,14.2c0.2,0.2,0.3,0.4,0.3,0.7s-0.1,0.5-0.3,0.7L85,64.8C84.8,65,84.6,65.1,84.3,65.1z M85.3,38.1
			v23.6l11.8-11.8L85.3,38.1z"/>
	</g>
	<g>
		<path class="st0" d="M49.9,99.5c-0.3,0-0.5-0.1-0.7-0.3L35,85c-0.3-0.3-0.4-0.7-0.2-1.1c0.2-0.4,0.5-0.6,0.9-0.6l28.6-0.2
			c0.4,0,0.8,0.2,0.9,0.6c0.2,0.4,0.1,0.8-0.2,1.1L50.6,99.2C50.4,99.4,50.2,99.5,49.9,99.5z M38.1,85.3l11.8,11.8l12-12L38.1,85.3z
			"/>
	</g>
</g>
</svg>
