<?xml version="1.0" encoding="utf-8"?>
<!-- Generator: Adobe Illustrator 20.1.0, SVG Export Plug-In . SVG Version: 6.00 Build 0)  -->
<svg version="1.1" id="Capa_1" xmlns="http://www.w3.org/2000/svg" xmlns:xlink="http://www.w3.org/1999/xlink" x="0px" y="0px"
	 viewBox="0 0 100 100" style="enable-background:new 0 0 100 100;" xml:space="preserve">
<style type="text/css">
	.st0{fill:#E29A3E;}
	.st1{fill:#E19736;}
</style>
<g>
	<path class="st0" d="M50,99.5C22.7,99.5,0.5,77.3,0.5,50C0.5,22.7,22.7,0.5,50,0.5c27.3,0,49.5,22.2,49.5,49.5
		C99.5,77.3,77.3,99.5,50,99.5z M50,2.5C23.8,2.5,2.5,23.8,2.5,50S23.8,97.5,50,97.5S97.5,76.2,97.5,50S76.2,2.5,50,2.5z"/>
</g>
<g>
	<g>
		<path class="st1" d="M35.8,74.2c-2,0-3.7-0.5-4.9-1.7c-0.3-0.3-0.6-0.5-0.9-0.8c-1.9-1.8-4.2-4-4.1-7c0.1-2.1,1.3-4,3.7-5.9
			c6.6-5.4,9.4-3.4,12.7-0.1l0.5,0.5c0.1,0.1,0.1,0.1,0.3,0.1c0,0,0,0,0,0c0.8,0,3.1-0.7,9.3-6.8c8-8,6.8-9.7,6.8-9.7l-0.4-0.4
			c-3.4-3.2-5.4-6.1,0-12.8c2-2.4,3.9-3.7,5.9-3.8c2.9-0.1,5.1,2.2,6.9,4.1c0.3,0.3,0.6,0.6,0.9,0.9C76.8,35,73,48.3,60.7,60.6
			C53,68.1,42.6,74.2,35.8,74.2z M36.6,58.4c-1.2,0-2.7,0.8-5,2.6c-1.7,1.4-2.6,2.6-2.6,3.7c-0.1,1.6,1.6,3.2,3.1,4.7
			c0.3,0.3,0.6,0.6,0.9,0.9c2.3,2.3,13.4,0.2,25.6-11.9c11.6-11.6,14.3-23.2,11.9-25.6c-0.3-0.3-0.6-0.6-0.9-0.9
			c-1.5-1.6-3.1-3.2-4.6-3.1c-1.1,0-2.4,0.9-3.7,2.6c-4.1,5.1-3,6.2-0.3,8.8l0.4,0.4c2.4,2.5,0.3,6.8-6.8,13.9
			c-6.9,6.9-9.8,7.7-11.4,7.7c-1,0-1.8-0.4-2.4-1l-0.4-0.5C38.9,59.4,37.9,58.4,36.6,58.4z"/>
	</g>
</g>
</svg>
