<?xml version="1.0" encoding="utf-8"?>
<!-- Generator: Adobe Illustrator 20.1.0, SVG Export Plug-In . SVG Version: 6.00 Build 0)  -->
<svg version="1.1" id="Capa_1" xmlns="http://www.w3.org/2000/svg" xmlns:xlink="http://www.w3.org/1999/xlink" x="0px" y="0px"
	 viewBox="0 0 100 100" style="enable-background:new 0 0 100 100;" xml:space="preserve">
<style type="text/css">
	.st0{fill:#E19736;}
</style>
<g>
	<path class="st0" d="M50,99.5C22.7,99.5,0.5,77.3,0.5,50C0.5,22.7,22.7,0.5,50,0.5c27.3,0,49.5,22.2,49.5,49.5
		C99.5,77.3,77.3,99.5,50,99.5z M50,2.5C23.8,2.5,2.5,23.8,2.5,50S23.8,97.5,50,97.5S97.5,76.2,97.5,50S76.2,2.5,50,2.5z M41,70.7
		c-5.6,0-11.1-1.6-15.8-4.7c-0.4-0.3-0.6-0.7-0.4-1.2c0.2-0.4,0.6-0.7,1.1-0.7c0.7,0.1,1.5,0.1,2.3,0.1c3.5,0,6.8-0.9,9.8-2.7
		c-3.5-1-6.4-3.6-7.6-7.2c-0.1-0.3,0-0.7,0.2-1c0.2-0.2,0.5-0.4,0.8-0.3c-2.8-2-4.5-5.3-4.5-8.9v-0.1c0-0.4,0.2-0.7,0.5-0.9
		c0.3-0.2,0.7-0.2,1,0c0.3,0.1,0.5,0.3,0.8,0.4c-1.4-1.9-2.2-4.1-2.2-6.6c0-1.9,0.5-3.7,1.4-5.5c0.2-0.3,0.5-0.5,0.8-0.5
		c0.3,0,0.7,0.1,0.9,0.4c4.6,5.7,11.3,9.2,18.5,9.9c0-0.4-0.1-0.8-0.1-1.2c0-6,4.9-10.9,11-10.9c2.8,0,5.5,1,7.6,3
		c1.8-0.4,3.6-1.1,5.5-2.2c0.4-0.2,0.8-0.2,1.1,0.1c0.3,0.3,0.5,0.7,0.3,1.1c-0.4,1.2-1,2.4-1.8,3.4c0.6-0.2,1.1-0.4,1.7-0.7
		c0.4-0.2,0.9-0.1,1.2,0.2c0.3,0.3,0.3,0.8,0.1,1.2c-1.2,2-2.7,3.7-4.8,5.3v0.8c0,7.1-2.7,14.3-7.5,19.7C58.9,65.5,52,70.7,41,70.7z
		 M29.7,66.2c3.5,1.6,7.3,2.5,11.3,2.5c13.4,0,27.3-10.2,27.3-27.3v-1.3c0-0.3,0.2-0.6,0.4-0.8c1-0.8,1.9-1.6,2.7-2.4
		c-1,0.3-1.9,0.4-2.8,0.5c-0.5,0-0.9-0.2-1.1-0.7c-0.1-0.4,0-0.9,0.5-1.2c1.1-0.6,2-1.4,2.7-2.4c-1.3,0.6-2.6,0.9-3.9,1.2
		c-0.3,0.1-0.6,0-0.9-0.3c-1.8-1.8-4.1-2.8-6.6-2.8c-5,0-9,4-9,8.9c0,0.7,0.1,1.4,0.3,2c0.1,0.3,0,0.6-0.2,0.9s-0.5,0.4-0.8,0.4
		c-7.7-0.4-15-3.8-20.2-9.6c-0.4,1-0.6,2.1-0.6,3.2c0,3.1,1.4,5.8,4,7.5c0.4,0.2,0.5,0.7,0.4,1.1c-0.1,0.4-0.5,0.7-1,0.7
		c-1.1,0-2.3-0.2-3.4-0.6c0.6,3.6,3.4,6.6,7.1,7.3c0.5,0.1,0.8,0.5,0.8,1c0,0.5-0.3,0.9-0.8,1c-0.9,0.2-2.1,0.4-3.1,0.3
		c1.5,2.8,4.5,4.6,7.7,4.7c0.4,0,0.8,0.3,0.9,0.7s0,0.8-0.3,1.1C37.8,64.4,33.9,65.9,29.7,66.2z"/>
</g>
</svg>
