<?xml version="1.0" encoding="utf-8"?>
<!-- Generator: Adobe Illustrator 20.1.0, SVG Export Plug-In . SVG Version: 6.00 Build 0)  -->
<svg version="1.1" id="Capa_1" xmlns="http://www.w3.org/2000/svg" xmlns:xlink="http://www.w3.org/1999/xlink" x="0px" y="0px"
	 viewBox="0 0 100 100" style="enable-background:new 0 0 100 100;" xml:space="preserve">
<style type="text/css">
	.st0{fill:#D28D32;}
</style>
<g>
	<g>
		<path class="st0" d="M100,94.2H75.2V78.3c0-5.9-0.9-7.1-17-15.2L56,62l2-1.4c2.5-1.8,3.4-3.6,3.4-6.9c0-1-0.2-1.2-0.7-1.9
			c-0.8-1-1.8-2.4-2.4-6c0-0.2-0.1-0.3-0.1-0.3c0,0-0.1,0-0.1-0.1c-1.4-0.8-2.2-1.9-2.5-5.5l0-0.1c0-1.7,0.4-2.7,0.9-3.3
			c-0.2-1.2-0.5-3.4-0.7-5.3c-0.2-2,0.3-6.1,3.2-9.2c2.3-2.6,5.8-3.9,9.9-3.9s7.6,1.4,9.9,3.9c2.9,3.2,3.4,7.3,3.2,9.2
			c-0.1,1.9-0.4,4-0.6,5.2c0.5,0.6,1,1.7,1,3.4l0,0.1c-0.3,3.6-1.1,4.7-2.5,5.5c-0.1,0-0.1,0.1-0.2,0.1c0,0,0,0.1,0,0.3
			c-0.6,3.6-1.7,5-2.4,6c-0.5,0.7-0.7,0.9-0.7,1.9c0,4.7,1.8,6.8,8.6,9.6c7.6,3.2,11.6,5.2,13.5,8.4c1.2,2,1.5,15.4,1.5,21.1
			L100,94.2z M78.2,91.2H97c-0.1-8.2-0.6-16.8-1.1-18.1c-1.4-2.4-5.2-4.3-12.1-7.1c-6.9-2.9-10.4-5.6-10.4-12.4c0-2,0.7-3,1.4-3.8
			c0.6-0.8,1.4-1.8,1.9-4.7c0.3-1.6,1-2.1,1.7-2.5c0.3-0.2,0.7-0.4,0.9-3c0-1-0.3-1.3-0.3-1.4L78,37.8l0.2-1.1c0,0,0.5-3.3,0.7-5.8
			c0.1-1.4-0.2-4.5-2.4-6.9c-1.8-2-4.4-2.9-7.7-2.9s-5.9,1-7.7,2.9c-2.2,2.4-2.6,5.6-2.4,6.9c0.3,2.5,0.8,5.9,0.8,5.9l0.2,1.1
			l-0.8,0.4c-0.1,0.1-0.3,0.5-0.3,1.5c0.2,2.6,0.6,2.8,0.9,3c0.7,0.4,1.5,0.9,1.7,2.5c0.5,2.9,1.2,3.8,1.9,4.7
			c0.6,0.8,1.4,1.8,1.4,3.8c0,3.4-0.8,5.7-2.8,7.8c13.6,6.9,16.6,9,16.6,16.8V91.2z M58.8,38.2L58.8,38.2L58.8,38.2z M70.2,94.2
			H-0.2V75c0-5.4,5.6-7.7,8.6-8.9l0.5-0.2c9.1-3.8,11.8-6.8,11.8-13.2c0-1.5-0.4-2-1.1-2.9c-1-1.3-2.3-3-3.1-7.8
			c-0.1-0.6-0.1-0.6-0.6-0.9c-1.4-0.8-2.7-1.9-3.1-6.9c0-2.4,0.7-3.7,1.3-4.5c-0.2-1.5-0.7-4.6-0.9-7.2c-0.2-2.6,0.5-7.9,4.3-12
			c3.1-3.3,7.3-4.9,12.7-4.9c5.4,0,9.7,1.7,12.7,4.9c3.8,4,4.5,9.4,4.3,12c-0.2,2.7-0.7,5.8-0.9,7.3c0.6,0.7,1.3,2.1,1.3,4.3
			c-0.3,5.1-1.6,6.2-3.1,7c-0.5,0.3-0.5,0.3-0.6,0.8c-0.8,4.8-2.1,6.5-3.1,7.9c-0.7,0.9-1.1,1.4-1.1,2.8c0,6.4,2.6,9.4,11.8,13.2
			l0,0c10.6,4.5,18.8,8.4,18.5,13.6L70.2,94.2z M2.8,91.2h64.4V79.4c0.2-3.5-10.8-8.2-16.7-10.7c-10.3-4.3-13.6-8.2-13.6-16
			c0-2.5,0.8-3.6,1.7-4.6c0.9-1.2,1.9-2.5,2.5-6.5c0.3-1.8,1.2-2.5,2-3c0.6-0.3,1.3-0.7,1.5-4.5c0-1.9-0.7-2.4-0.7-2.4l-1.1-0.5
			l0.4-1c0,0,0.7-4.4,1-7.8c0.1-2-0.4-6.4-3.5-9.7c-2.5-2.6-6-4-10.5-4c-4.5,0-8,1.3-10.5,4c-3.1,3.3-3.7,7.8-3.5,9.7
			c0.3,3.3,1,7.7,1,7.8l0.2,1.3l-1,0.3c-0.2,0.2-0.6,0.8-0.6,2.5c0.2,3.6,1,4,1.5,4.4c0.9,0.5,1.8,1.1,2.1,3c0.6,4,1.6,5.3,2.5,6.4
			c0.8,1.1,1.7,2.2,1.7,4.7c0,7.8-3.3,11.7-13.6,16l-0.5,0.2c-3.4,1.4-6.8,3-6.8,6.1V91.2z M16.5,31.7L16.5,31.7L16.5,31.7z"/>
	</g>
</g>
</svg>
