<?xml version="1.0" encoding="utf-8"?>
<!-- Generator: Adobe Illustrator 20.1.0, SVG Export Plug-In . SVG Version: 6.00 Build 0)  -->
<svg version="1.1" id="Capa_1" xmlns="http://www.w3.org/2000/svg" xmlns:xlink="http://www.w3.org/1999/xlink" x="0px" y="0px"
	 viewBox="0 0 100 100" style="enable-background:new 0 0 100 100;" xml:space="preserve">
<style type="text/css">
	.st0{fill:#E19736;}
</style>
<g>
	<path class="st0" d="M50,99.5C22.7,99.5,0.5,77.3,0.5,50C0.5,22.7,22.7,0.5,50,0.5c27.3,0,49.5,22.2,49.5,49.5
		C99.5,77.3,77.3,99.5,50,99.5z M50,2.5C23.8,2.5,2.5,23.8,2.5,50S23.8,97.5,50,97.5S97.5,76.2,97.5,50S76.2,2.5,50,2.5z"/>
</g>
<g>
	<g>
		<g>
			<path class="st0" d="M61.6,31.1v10.3c-0.3,0.3-0.5,0.5-0.8,0.7s-0.6,0.3-0.8,0.3c-0.3,0-0.4-0.1-0.6-0.2
				c-0.1-0.1-0.2-0.4-0.2-0.7V31.1h-2.8v11.3c0,0.8,0.2,1.4,0.5,1.8c0.3,0.4,0.8,0.6,1.4,0.6c0.5,0,1.1-0.2,1.6-0.4
				c0.6-0.3,1.1-0.7,1.6-1.3v1.5h2.8V31.1H61.6z"/>
		</g>
		<g>
			<path class="st0" d="M50.4,30.7c-1.3,0-2.3,0.3-3,0.9s-1.1,1.5-1.1,2.5v7c0,1.1,0.4,2.1,1.1,2.7c0.7,0.7,1.7,1,2.9,1
				c1.3,0,2.2-0.3,3-1c0.7-0.7,1.1-1.6,1.1-2.7v-7c0-1-0.4-1.9-1.1-2.5C52.4,31.1,51.5,30.7,50.4,30.7z M51.3,41.4
				c0,0.4-0.1,0.7-0.3,0.9s-0.5,0.3-0.8,0.3s-0.6-0.1-0.8-0.3s-0.3-0.5-0.3-0.9v-7.5c0-0.3,0.1-0.5,0.3-0.7s0.5-0.3,0.8-0.3
				s0.6,0.1,0.8,0.3s0.3,0.4,0.3,0.7V41.4z"/>
		</g>
		<g>
			<polygon class="st0" points="40.9,33.6 40.8,33.6 38.7,26.3 35.6,26.3 39.3,37.3 39.3,44.6 42.4,44.6 42.4,37 46,26.3 42.9,26.3 
							"/>
		</g>
	</g>
	<g>
		<g>
			<path class="st0" d="M63,58.2c-0.4,0-0.7,0.1-0.8,0.3c-0.2,0.2-0.3,0.6-0.3,1.1v1.2H64v-1.2c0-0.5-0.1-0.9-0.3-1.1
				C63.6,58.3,63.3,58.2,63,58.2z"/>
		</g>
		<g>
			<path class="st0" d="M65.4,48.9H34.6c-4.9,0-8.9,4-8.9,8.9v7.1c0,4.9,4,8.9,8.9,8.9h30.8c4.9,0,8.9-4,8.9-8.9v-7.1
				C74.3,52.8,70.3,48.9,65.4,48.9z M41.1,54.4h-2.9v14.2h-2.8V54.4h-2.9V52H41v2.4H41.1z M49.2,68.6h-2.5v-1.3
				c-0.5,0.5-0.9,0.9-1.4,1.1c-0.5,0.3-1,0.4-1.4,0.4c-0.6,0-1-0.2-1.3-0.6s-0.4-0.9-0.4-1.6V56.4h2.5v9.4c0,0.3,0.1,0.5,0.2,0.6
				c0.1,0.1,0.3,0.2,0.5,0.2s0.4-0.1,0.7-0.3c0.3-0.2,0.5-0.4,0.8-0.7v-9.3h2.5v12.3H49.2z M58.1,66.1c0,0.9-0.2,1.5-0.6,2
				c-0.4,0.5-0.9,0.7-1.7,0.7c-0.5,0-0.9-0.1-1.3-0.3c-0.4-0.2-0.7-0.4-1.1-0.8v0.9H51V52h2.5v5.4c0.3-0.4,0.7-0.7,1.1-0.9
				c0.4-0.2,0.8-0.3,1.1-0.3c0.8,0,1.4,0.3,1.8,0.8c0.4,0.5,0.6,1.3,0.6,2.3C58.1,59.3,58.1,66.1,58.1,66.1z M66.6,62.8h-4.7v2.3
				c0,0.6,0.1,1.1,0.2,1.3c0.2,0.2,0.4,0.4,0.8,0.4c0.4,0,0.7-0.1,0.9-0.3c0.2-0.2,0.2-0.7,0.2-1.4v-0.6h2.5v0.6
				c0,1.3-0.3,2.2-0.9,2.8C65,68.7,64.1,69,62.9,69c-1.1,0-2-0.3-2.6-1s-0.9-1.6-0.9-2.8v-5.5c0-1.1,0.3-1.9,1-2.6
				c0.7-0.7,1.6-1,2.7-1s2,0.3,2.6,0.9c0.6,0.6,0.9,1.5,0.9,2.7C66.6,59.7,66.6,62.8,66.6,62.8z"/>
		</g>
		<g>
			<path class="st0" d="M54.5,58.2c-0.2,0-0.3,0-0.5,0.1s-0.3,0.2-0.5,0.4v7.6c0.2,0.2,0.4,0.3,0.6,0.4c0.2,0.1,0.4,0.1,0.6,0.1
				c0.3,0,0.5-0.1,0.7-0.3c0.1-0.2,0.2-0.4,0.2-0.8v-6.3c0-0.4-0.1-0.7-0.3-0.9C55.1,58.3,54.8,58.2,54.5,58.2z"/>
		</g>
	</g>
</g>
</svg>
